<?xml version="1.0" encoding="UTF-8"?>
<svg version="1.1" xmlns="http://www.w3.org/2000/svg" width="150" height="150">
<path d="M0 0 C49.5 0 99 0 150 0 C150 49.5 150 99 150 150 C100.5 150 51 150 0 150 C0 100.5 0 51 0 0 Z " fill="#11381D" transform="translate(0,0)"/>
<path d="M0 0 C2.26979665 -0.10794277 4.54105196 -0.18556176 6.8125 -0.25 C8.07707031 -0.29640625 9.34164062 -0.3428125 10.64453125 -0.390625 C14 0 14 0 15.92578125 1.765625 C17.58452533 5.21581269 17.62220071 8.25124074 17 12 C16.46375 12.70125 15.9275 13.4025 15.375 14.125 C14.92125 14.74375 14.4675 15.3625 14 16 C14.60380471 19.06201446 14.60380471 19.06201446 16 22 C16.309375 22.763125 16.61875 23.52625 16.9375 24.3125 C17.96551729 26.34090388 17.96551729 26.34090388 21 27 C20.9278125 26.05640625 20.855625 25.1128125 20.78125 24.140625 C20.19816667 16.07463888 19.86436544 8.09286195 20 0 C29.94126706 -0.78346238 29.94126706 -0.78346238 34.125 2.3125 C37.20059797 6.72085709 37.50719855 10.76498634 37 16 C35.81981402 21.29348124 34.42194556 25.57655828 30 29 C29.34 29.33 28.68 29.66 28 30 C28.495 31.485 28.495 31.485 29 33 C30.98 33.33 32.96 33.66 35 34 C34.58427734 34.82177734 34.58427734 34.82177734 34.16015625 35.66015625 C30.60670507 43.43728249 30.22518202 50.55567435 30 59 C28.35 59 26.7 59 25 59 C24.505 50.09 24.505 50.09 24 41 C23.01 41 22.02 41 21 41 C20.96261719 41.88042969 20.92523438 42.76085937 20.88671875 43.66796875 C20.82097656 44.82941406 20.75523438 45.99085937 20.6875 47.1875 C20.60048828 48.91033203 20.60048828 48.91033203 20.51171875 50.66796875 C19.96918259 54.20066607 19.21860774 56.21118934 17 59 C12.74718176 59.54126778 9.64286904 59.33143618 6 57 C6 57.99 6 58.98 6 60 C1.38 60 -3.24 60 -8 60 C-7.979375 58.081875 -7.95875 56.16375 -7.9375 54.1875 C-7.93079283 48.07055662 -8.31815435 42.07573179 -9 36 C-9.66 36.99 -10.32 37.98 -11 39 C-11.66 39 -12.32 39 -13 39 C-13 38.01 -13 37.02 -13 36 C-13.99 35.34 -14.98 34.68 -16 34 C-15.67 33.67 -15.34 33.34 -15 33 C-17.33294775 32.95758277 -19.66702567 32.95907063 -22 33 C-22.495 33.495 -22.495 33.495 -23 34 C-25.67058851 34.14115161 -28.32432238 34.04247107 -31 34 C-35.68216618 26.05320419 -38.98912978 18.41705746 -38 9 C-36.45238485 6.97012517 -35.27557599 6.137788 -33 5 C-29.78446733 4.72038846 -27.66157199 4.669214 -24.75 6.125 C-22.50067618 8.53498981 -21.84094381 10.84646071 -21 14 C-25.625 16.125 -25.625 16.125 -29 15 C-29 13.02 -29 11.04 -29 9 C-29.99 8.67 -30.98 8.34 -32 8 C-32.20037966 13.32042549 -31.56822338 17.79393797 -30.1875 22.875 C-30.02185547 23.55046875 -29.85621094 24.2259375 -29.68554688 24.921875 C-29.14189094 27.09133294 -29.14189094 27.09133294 -28 30 C-27.01 30.33 -26.02 30.66 -25 31 C-25 28.03 -25 25.06 -25 22 C-26.32 22 -27.64 22 -29 22 C-28.67 21.01 -28.34 20.02 -28 19 C-24.04 18.505 -24.04 18.505 -20 18 C-19.34 21.96 -18.68 25.92 -18 30 C-17.67 30 -17.34 30 -17 30 C-17 20.76 -17 11.52 -17 2 C-13.37 1.67 -9.74 1.34 -6 1 C-2.92096391 9.99795982 -1.07496872 18.56573505 0 28 C0.99 28 1.98 28 3 28 C2.80083984 26.9790625 2.80083984 26.9790625 2.59765625 25.9375 C1.02441995 17.30192558 0.42195975 8.7501128 0 0 Z " fill="#1E3A1F" transform="translate(55,58)"/>
<path d="M0 0 C0 1.98 0 3.96 0 6 C-0.99 5.67 -1.98 5.34 -3 5 C-3 4.01 -3 3.02 -3 2 C-3.66 2 -4.32 2 -5 2 C-4.34 8.27 -3.68 14.54 -3 21 C-3.99 21.33 -4.98 21.66 -6 22 C-4.02 22.33 -2.04 22.66 0 23 C0.84191782 20.0751367 1.11819313 17.49258344 1.09765625 14.453125 C1.09443359 13.60878906 1.09121094 12.76445313 1.08789062 11.89453125 C1.07951172 11.02183594 1.07113281 10.14914063 1.0625 9.25 C1.05798828 8.36183594 1.05347656 7.47367188 1.04882812 6.55859375 C1.037074 4.37232671 1.02064249 2.18619821 1 0 C2.65 0 4.3 0 6 0 C5.67 2.97 5.34 5.94 5 9 C6.32 9 7.64 9 9 9 C9 6.03 9 3.06 9 0 C10.32 0 11.64 0 13 0 C13 2.97 13 5.94 13 9 C13.66 9 14.32 9 15 9 C15 6.03 15 3.06 15 0 C23.75 -0.125 23.75 -0.125 26 1 C26 2.32 26 3.64 26 5 C25.01 4.67 24.02 4.34 23 4 C23 3.34 23 2.68 23 2 C21.68 2 20.36 2 19 2 C19.495 5.465 19.495 5.465 20 9 C21.32 8.67 22.64 8.34 24 8 C24 8.99 24 9.98 24 11 C22.68 11.33 21.36 11.66 20 12 C19.67 14.31 19.34 16.62 19 19 C19.99 19 20.98 19 22 19 C22.33 17.68 22.66 16.36 23 15 C23.66 15 24.32 15 25 15 C25.33 14.34 25.66 13.68 26 13 C26 13.66 26 14.32 26 15 C26.58007812 14.7834375 27.16015625 14.566875 27.7578125 14.34375 C32.26558081 12.7370207 36.14449701 11.40786549 41 12 C41.99 12.99 41.99 12.99 43 14 C42.625 16.625 42.625 16.625 42 19 C40.35 18.34 38.7 17.68 37 17 C37 16.34 37 15.68 37 15 C35.741875 15.33 34.48375 15.66 33.1875 16 C30.61012698 16.67603227 28.69787075 17 26 17 C25.67 16.67 25.34 16.34 25 16 C25 17.98 25 19.96 25 22 C24.01 22 23.02 22 22 22 C21.34 23.32 20.68 24.64 20 26 C18.515 25.505 18.515 25.505 17 25 C13.7 25 10.4 25 7 25 C7 33.58 7 42.16 7 51 C3 50 3 50 1.6640625 48.29296875 C1.32117188 47.59816406 0.97828125 46.90335938 0.625 46.1875 C0.26664063 45.50042969 -0.09171875 44.81335938 -0.4609375 44.10546875 C-1 42 -1 42 -0.1640625 39.86328125 C0.41214844 38.94095703 0.41214844 38.94095703 1 38 C2.5635348 34.87293041 2.39958487 31.42017557 2 28 C1.34 27.01 0.68 26.02 0 25 C-2.82979281 24.67278934 -2.82979281 24.67278934 -6 24.875 C-11.82959641 25.08520179 -11.82959641 25.08520179 -14 24 C-13.505 24.99 -13.505 24.99 -13 26 C-12.7814195 27.44762433 -12.60984317 28.9025398 -12.46484375 30.359375 C-12.33432617 31.66261719 -12.33432617 31.66261719 -12.20117188 32.9921875 C-12.0706543 34.35730469 -12.0706543 34.35730469 -11.9375 35.75 C-11.84662109 36.64460938 -11.75574219 37.53921875 -11.66210938 38.4609375 C-11.21760648 42.99286173 -10.88674942 47.43977672 -11 52 C-11.99 52 -12.98 52 -14 52 C-15.652344 47.51506629 -16.60840703 43.07295641 -17.4921875 38.39453125 C-17.9897651 35.81592454 -17.9897651 35.81592454 -19.125 32.6875 C-20.01436017 29.95589378 -20.16770187 27.85093177 -20 25 C-20.99 25.33 -21.98 25.66 -23 26 C-24.39439664 26.06665376 -25.79169875 26.08538199 -27.1875 26.0625 C-29.0746875 26.0315625 -29.0746875 26.0315625 -31 26 C-30.67 26.66 -30.34 27.32 -30 28 C-29.91489795 29.9593604 -29.89282344 31.92162794 -29.90234375 33.8828125 C-29.90556641 35.04941406 -29.90878906 36.21601562 -29.91210938 37.41796875 C-29.92048828 38.64128906 -29.92886719 39.86460938 -29.9375 41.125 C-29.94201172 42.35605469 -29.94652344 43.58710937 -29.95117188 44.85546875 C-29.9629867 47.90369392 -29.97945972 50.95182314 -30 54 C-30.99 54 -31.98 54 -33 54 C-33.96070434 51.11788698 -34.10581883 49.30149956 -34.0625 46.3125 C-34.05347656 45.50425781 -34.04445313 44.69601563 -34.03515625 43.86328125 C-34.02355469 43.24839844 -34.01195312 42.63351563 -34 42 C-35.31471568 42.28151087 -36.62675767 42.57553339 -37.9375 42.875 C-39.03384766 43.11863281 -39.03384766 43.11863281 -40.15234375 43.3671875 C-42.20700294 43.82961523 -42.20700294 43.82961523 -43 46 C-41.68 46 -40.36 46 -39 46 C-38.67 48.97 -38.34 51.94 -38 55 C-39.32 55 -40.64 55 -42 55 C-45.52105913 47.47773732 -47.35449298 40.33058494 -47 32 C-45.68 32 -44.36 32 -43 32 C-42 33 -42 33 -41.9375 36.0625 C-41.958125 37.031875 -41.97875 38.00125 -42 39 C-39.03 38.505 -39.03 38.505 -36 38 C-37.87702327 33.10437307 -37.87702327 33.10437307 -41 29 C-40.4375 26.625 -40.4375 26.625 -39 24 C-35.92423601 22.8465885 -33.2987434 22 -30 22 C-30.20625 20.72125 -30.4125 19.4425 -30.625 18.125 C-30.9765625 15.9453125 -30.9765625 15.9453125 -31 14 C-30.34 13.34 -29.68 12.68 -29 12 C-28.01 12 -27.02 12 -26 12 C-25.67 10.35 -25.34 8.7 -25 7 C-20.71 7.66 -16.42 8.32 -12 9 C-12 9.66 -12 10.32 -12 11 C-13.65 11.66 -15.3 12.32 -17 13 C-14.525 13.495 -14.525 13.495 -12 14 C-9.60926555 10.17482487 -9.44033448 6.40334476 -9 2 C-9.66 2 -10.32 2 -11 2 C-11.33 3.32 -11.66 4.64 -12 6 C-12.66 5.34 -13.32 4.68 -14 4 C-14 3.01 -14 2.02 -14 1 C-9.27616037 0.34843591 -4.78025483 -0.11950637 0 0 Z " fill="#193D22" transform="translate(69,34)"/>
<path d="M0 0 C2.26979665 -0.10794277 4.54105196 -0.18556176 6.8125 -0.25 C8.07707031 -0.29640625 9.34164062 -0.3428125 10.64453125 -0.390625 C14 0 14 0 15.92578125 1.765625 C17.58452533 5.21581269 17.62220071 8.25124074 17 12 C16.46375 12.70125 15.9275 13.4025 15.375 14.125 C14.92125 14.74375 14.4675 15.3625 14 16 C14.60380471 19.06201446 14.60380471 19.06201446 16 22 C16.309375 22.763125 16.61875 23.52625 16.9375 24.3125 C17.96551729 26.34090388 17.96551729 26.34090388 21 27 C20.9278125 26.05640625 20.855625 25.1128125 20.78125 24.140625 C20.19816667 16.07463888 19.86436544 8.09286195 20 0 C29.7374975 -0.76740348 29.7374975 -0.76740348 34.1875 1.9375 C36.62494858 6.0559476 36.45772706 9.33118401 36 14 C35.01 12.02 35.01 12.02 34 10 C33.34 10.66 32.68 11.32 32 12 C31.01 9.03 30.02 6.06 29 3 C28.34 3 27.68 3 27 3 C27.01160156 3.85464844 27.02320312 4.70929687 27.03515625 5.58984375 C27.04417969 6.69457031 27.05320312 7.79929687 27.0625 8.9375 C27.07410156 10.03964844 27.08570312 11.14179687 27.09765625 12.27734375 C27 15 27 15 26 16 C25.63239269 18.32817964 25.29758419 20.6618385 25 23 C24.34 23 23.68 23 23 23 C22.67 24.98 22.34 26.96 22 29 C18.7 29 15.4 29 12 29 C10.68 25.7 9.36 22.4 8 19 C7.979375 20.27875 7.95875 21.5575 7.9375 22.875 C7.92589844 23.59429687 7.91429687 24.31359375 7.90234375 25.0546875 C7.87350758 27.08185404 7.87350758 27.08185404 9 29 C4.05 29.33 -0.9 29.66 -6 30 C-6 27.36 -6 24.72 -6 22 C-7.65 22 -9.3 22 -11 22 C-11.33 21.01 -11.66 20.02 -12 19 C-10.35 19 -8.7 19 -7 19 C-7.2165625 18.39671875 -7.433125 17.7934375 -7.65625 17.171875 C-7.9346875 16.37265625 -8.213125 15.5734375 -8.5 14.75 C-8.7784375 13.96109375 -9.056875 13.1721875 -9.34375 12.359375 C-10 10 -10 10 -10 6 C-10.66 6 -11.32 6 -12 6 C-12 6.74765625 -12 7.4953125 -12 8.265625 C-12 12.51041667 -12 16.75520833 -12 21 C-11.70195209 22.75635377 -11.36700009 24.50674957 -11 26.25 C-10.814375 27.14203125 -10.62875 28.0340625 -10.4375 28.953125 C-10.293125 29.62859375 -10.14875 30.3040625 -10 31 C-11.03060547 31.19916016 -11.03060547 31.19916016 -12.08203125 31.40234375 C-13.43361328 31.66724609 -13.43361328 31.66724609 -14.8125 31.9375 C-15.70582031 32.11152344 -16.59914063 32.28554687 -17.51953125 32.46484375 C-20.11397171 32.97741153 -20.11397171 32.97741153 -23 34 C-24.39439664 34.06665376 -25.79169875 34.08538199 -27.1875 34.0625 C-28.445625 34.041875 -29.70375 34.02125 -31 34 C-35.68216618 26.05320419 -38.98912978 18.41705746 -38 9 C-36.45238485 6.97012517 -35.27557599 6.137788 -33 5 C-29.78446733 4.72038846 -27.66157199 4.669214 -24.75 6.125 C-22.50067618 8.53498981 -21.84094381 10.84646071 -21 14 C-25.625 16.125 -25.625 16.125 -29 15 C-29 13.02 -29 11.04 -29 9 C-29.99 8.67 -30.98 8.34 -32 8 C-32.20037966 13.32042549 -31.56822338 17.79393797 -30.1875 22.875 C-30.02185547 23.55046875 -29.85621094 24.2259375 -29.68554688 24.921875 C-29.14189094 27.09133294 -29.14189094 27.09133294 -28 30 C-27.01 30.33 -26.02 30.66 -25 31 C-25 28.03 -25 25.06 -25 22 C-26.32 22 -27.64 22 -29 22 C-28.67 21.01 -28.34 20.02 -28 19 C-24.04 18.505 -24.04 18.505 -20 18 C-19.34 21.96 -18.68 25.92 -18 30 C-17.67 30 -17.34 30 -17 30 C-17 20.76 -17 11.52 -17 2 C-13.37 1.67 -9.74 1.34 -6 1 C-2.92096391 9.99795982 -1.07496872 18.56573505 0 28 C0.99 28 1.98 28 3 28 C2.80083984 26.9790625 2.80083984 26.9790625 2.59765625 25.9375 C1.02441995 17.30192558 0.42195975 8.7501128 0 0 Z " fill="#E2DCCA" transform="translate(55,58)"/>
<path d="M0 0 C1.65 0 3.3 0 5 0 C4.67 2.97 4.34 5.94 4 9 C5.32 9 6.64 9 8 9 C8 6.03 8 3.06 8 0 C9.32 0 10.64 0 12 0 C12 2.97 12 5.94 12 9 C12.66 9 13.32 9 14 9 C14 6.03 14 3.06 14 0 C22.75 -0.125 22.75 -0.125 25 1 C25 2.32 25 3.64 25 5 C24.01 4.67 23.02 4.34 22 4 C22 3.34 22 2.68 22 2 C20.68 2 19.36 2 18 2 C18.33 4.31 18.66 6.62 19 9 C20.32 8.67 21.64 8.34 23 8 C23 8.99 23 9.98 23 11 C21.68 11.33 20.36 11.66 19 12 C18.67 14.31 18.34 16.62 18 19 C18.99 19 19.98 19 21 19 C21.33 17.68 21.66 16.36 22 15 C22.66 15 23.32 15 24 15 C24.33 14.34 24.66 13.68 25 13 C25 13.66 25 14.32 25 15 C25.58007812 14.7834375 26.16015625 14.566875 26.7578125 14.34375 C31.26558081 12.7370207 35.14449701 11.40786549 40 12 C40.66 12.66 41.32 13.32 42 14 C41.625 16.625 41.625 16.625 41 19 C38.525 18.01 38.525 18.01 36 17 C36 16.34 36 15.68 36 15 C34.741875 15.33 33.48375 15.66 32.1875 16 C29.61012698 16.67603227 27.69787075 17 25 17 C24.67 16.67 24.34 16.34 24 16 C24 17.98 24 19.96 24 22 C23.01 22 22.02 22 21 22 C20.34 23.32 19.68 24.64 19 26 C18.01 25.67 17.02 25.34 16 25 C12.7 25 9.4 25 6 25 C6 33.58 6 42.16 6 51 C2 50 2 50 0.6640625 48.29296875 C0.14972656 47.25076172 0.14972656 47.25076172 -0.375 46.1875 C-0.73335937 45.50042969 -1.09171875 44.81335938 -1.4609375 44.10546875 C-2 42 -2 42 -1.1640625 39.86328125 C-0.77992187 39.24839844 -0.39578125 38.63351563 0 38 C1.5635348 34.87293041 1.39958487 31.42017557 1 28 C-0.60480784 24.87393036 -0.60480784 24.87393036 -2.9453125 24.48828125 C-3.66460937 24.43027344 -4.38390625 24.37226562 -5.125 24.3125 C-6.40375 24.209375 -7.6825 24.10625 -9 24 C-9 23.67 -9 23.34 -9 23 C-6.36 23 -3.72 23 -1 23 C-0.15808218 20.0751367 0.11819313 17.49258344 0.09765625 14.453125 C0.09443359 13.60878906 0.09121094 12.76445313 0.08789062 11.89453125 C0.07951172 11.02183594 0.07113281 10.14914063 0.0625 9.25 C0.05798828 8.36183594 0.05347656 7.47367188 0.04882812 6.55859375 C0.037074 4.37232671 0.02064249 2.18619821 0 0 Z " fill="#233C22" transform="translate(70,34)"/>
<path d="M0 0 C0.66 0 1.32 0 2 0 C2.99 4.29 3.98 8.58 5 13 C3.68 13.33 2.36 13.66 1 14 C1 14.66 1 15.32 1 16 C2.65 16 4.3 16 6 16 C6.33 18.31 6.66 20.62 7 23 C8.670625 22.9690625 8.670625 22.9690625 10.375 22.9375 C14 23 14 23 16 24 C16 24.99 16 25.98 16 27 C16.61488281 26.90460938 17.22976562 26.80921875 17.86328125 26.7109375 C18.67152344 26.60007812 19.47976562 26.48921875 20.3125 26.375 C21.51326172 26.20097656 21.51326172 26.20097656 22.73828125 26.0234375 C25 26 25 26 28 28 C26.02 28.33 24.04 28.66 22 29 C19.96767375 36.59183029 20.0119129 43.22882846 21 51 C20.01 51 19.02 51 18 51 C18 51.99 18 52.98 18 54 C13.38 54 8.76 54 4 54 C4.020625 52.081875 4.04125 50.16375 4.0625 48.1875 C4.06920717 42.07055662 3.68184565 36.07573179 3 30 C2.34 30.99 1.68 31.98 1 33 C0.34 33 -0.32 33 -1 33 C-1 32.01 -1 31.02 -1 30 C-1.99 29.34 -2.98 28.68 -4 28 C-3.505 26.515 -3.505 26.515 -3 25 C-1.35 25 0.3 25 2 25 C1.67 24.278125 1.34 23.55625 1 22.8125 C-0.00603529 19.98302573 -0.16977402 17.97104534 0 15 C-0.66 14.67 -1.32 14.34 -2 14 C-1.67 13.01 -1.34 12.02 -1 11 C-0.77820215 9.10787263 -0.59385985 7.21115528 -0.4375 5.3125 C-0.31181641 3.82169922 -0.31181641 3.82169922 -0.18359375 2.30078125 C-0.12300781 1.54152344 -0.06242187 0.78226562 0 0 Z " fill="#26442A" transform="translate(43,64)"/>
<path d="M0 0 C9.04878118 0.32557649 17.44005755 0.72829123 26 4 C25.01 4.495 25.01 4.495 24 5 C24.99 8.3 25.98 11.6 27 15 C27.66 15 28.32 15 29 15 C29 11.7 29 8.4 29 5 C31.64 5.33 34.28 5.66 37 6 C36.80664062 6.54527344 36.61328125 7.09054688 36.4140625 7.65234375 C34.81436025 12.28514483 33.53880598 16.85305777 32.5390625 21.6484375 C31.58085359 25.82845026 30.28097694 29.90941363 29 34 C27.02 34 25.04 34 23 34 C23.350625 32.824375 23.70125 31.64875 24.0625 30.4375 C25.24549186 25.74718722 25.20620108 21.41240215 23 17 C20.74315457 22.36000789 19.63736141 26.1977825 20 32 C17.69 31.67 15.38 31.34 13 31 C13.62009395 27.81152563 14.24696967 24.62441985 14.875 21.4375 C15.04902344 20.54224609 15.22304687 19.64699219 15.40234375 18.72460938 C16.38963481 13.73330458 17.51761254 8.86783989 19 4 C18.01 4.33 17.02 4.66 16 5 C15.67 5.99 15.34 6.98 15 8 C14.34 8 13.68 8 13 8 C13 7.34 13 6.68 13 6 C12.34 6 11.68 6 11 6 C11 5.01 11 4.02 11 3 C9.68 3.33 8.36 3.66 7 4 C6.67 6.97 6.34 9.94 6 13 C6.33 12.67 6.66 12.34 7 12 C8.66617115 11.95936168 10.33388095 11.957279 12 12 C12 12.99 12 13.98 12 15 C9.69 15.66 7.38 16.32 5 17 C4.34 20.3 3.68 23.6 3 27 C4.65 27 6.3 27 8 27 C8 26.01 8 25.02 8 24 C8.99 23.67 9.98 23.34 11 23 C11 25.31 11 27.62 11 30 C6.2086952 30.09778173 1.73278814 29.72156554 -3 29 C-2.86722656 27.99582031 -2.73445313 26.99164063 -2.59765625 25.95703125 C-1.47505721 17.31577742 -0.56604776 8.69926038 0 0 Z " fill="#EAE2D0" transform="translate(95,59)"/>
<path d="M0 0 C2.26979665 -0.10794277 4.54105196 -0.18556176 6.8125 -0.25 C8.07707031 -0.29640625 9.34164062 -0.3428125 10.64453125 -0.390625 C14 0 14 0 15.92578125 1.765625 C17.58452533 5.21581269 17.62220071 8.25124074 17 12 C16.46375 12.70125 15.9275 13.4025 15.375 14.125 C14.92125 14.74375 14.4675 15.3625 14 16 C14.60380471 19.06201446 14.60380471 19.06201446 16 22 C16.4640625 23.1446875 16.4640625 23.1446875 16.9375 24.3125 C17.96551729 26.34090388 17.96551729 26.34090388 21 27 C20.9278125 26.05640625 20.855625 25.1128125 20.78125 24.140625 C20.19816667 16.07463888 19.86436544 8.09286195 20 0 C29.7374975 -0.76740348 29.7374975 -0.76740348 34.1875 1.9375 C36.62494858 6.0559476 36.45772706 9.33118401 36 14 C35.34 12.68 34.68 11.36 34 10 C33.34 10.66 32.68 11.32 32 12 C30.515 7.545 30.515 7.545 29 3 C28.34 3 27.68 3 27 3 C27.01160156 3.85464844 27.02320312 4.70929687 27.03515625 5.58984375 C27.04417969 6.69457031 27.05320312 7.79929687 27.0625 8.9375 C27.07410156 10.03964844 27.08570312 11.14179687 27.09765625 12.27734375 C27 15 27 15 26 16 C25.63239269 18.32817964 25.29758419 20.6618385 25 23 C24.34 23 23.68 23 23 23 C22.67 24.98 22.34 26.96 22 29 C18.7 29 15.4 29 12 29 C10.68 25.7 9.36 22.4 8 19 C7.979375 20.27875 7.95875 21.5575 7.9375 22.875 C7.92589844 23.59429687 7.91429687 24.31359375 7.90234375 25.0546875 C7.87350758 27.08185404 7.87350758 27.08185404 9 29 C7.02 29 5.04 29 3 29 C1.29573212 19.33696657 0.47720232 9.78264757 0 0 Z " fill="#E6DECD" transform="translate(55,58)"/>
<path d="M0 0 C1.32 0 2.64 0 4 0 C4 0.99 4 1.98 4 3 C4.66 3 5.32 3 6 3 C6 3.66 6 4.32 6 5 C6.66 5 7.32 5 8 5 C8.33 3.35 8.66 1.7 9 0 C9.99 0.33 10.98 0.66 12 1 C11.87882812 1.65484375 11.75765625 2.3096875 11.6328125 2.984375 C11.46523437 3.89703125 11.29765625 4.8096875 11.125 5.75 C10.94195312 6.74644531 10.75890625 7.74289063 10.5703125 8.76953125 C9.83062893 12.9593827 9.1900589 17.16308721 8.5625 21.37109375 C8.02480401 23.88407569 7.2621588 25.77544511 6 28 C7.32 28.33 8.64 28.66 10 29 C9.01 29 8.02 29 7 29 C6.01 31.475 6.01 31.475 5 34 C3.68 34 2.36 34 1 34 C1.33 35.65 1.66 37.3 2 39 C-0.31 39 -2.62 39 -5 39 C-4.67 36.69 -4.34 34.38 -4 32 C-5.32 32 -6.64 32 -8 32 C-6.80589651 37.53629802 -5.39566549 40.16788137 -1 44 C0 45 0 45 0.25 48.875 C0.19964878 51.42460259 0.11640524 52.77403688 -1.0625 55.0625 C-4.20486615 56.58299975 -6.69692708 55.78072633 -10 55 C-12.76223278 52.23776722 -12.57856291 49.79293383 -13 46 C-11.02 46 -9.04 46 -7 46 C-7.33 48.31 -7.66 50.62 -8 53 C-6.68 53 -5.36 53 -4 53 C-4.33 50.36 -4.66 47.72 -5 45 C-5.99 44.67 -6.98 44.34 -8 44 C-10.49456997 40.93524261 -11.88596783 38.81451552 -12.4375 34.875 C-11.95843145 31.72683526 -11.1367793 30.31484424 -9 28 C-9.33 27.34 -9.66 26.68 -10 26 C-6.59598052 24.86267574 -4.22543336 25.16010043 -0.75 25.9375 C0.14203125 26.13214844 1.0340625 26.32679687 1.953125 26.52734375 C2.62859375 26.68332031 3.3040625 26.83929688 4 27 C3.67 25.02 3.34 23.04 3 21 C2.34 21 1.68 21 1 21 C1 21.99 1 22.98 1 24 C-0.65 24 -2.3 24 -4 24 C-3.9129995 22.37399059 -3.8048219 20.74910322 -3.6875 19.125 C-3.62949219 18.22007813 -3.57148437 17.31515625 -3.51171875 16.3828125 C-3 14 -3 14 0 12 C2.6875 11.875 2.6875 11.875 5 12 C5 11.01 5 10.02 5 9 C2.69 9.66 0.38 10.32 -2 11 C-1.85957123 9.35369672 -1.71250671 7.70795821 -1.5625 6.0625 C-1.48128906 5.14597656 -1.40007812 4.22945313 -1.31640625 3.28515625 C-1 1 -1 1 0 0 Z " fill="#2B482D" transform="translate(102,62)"/>
<path d="M0 0 C0 1.98 0 3.96 0 6 C-0.99 5.67 -1.98 5.34 -3 5 C-3 4.01 -3 3.02 -3 2 C-3.66 2 -4.32 2 -5 2 C-4.34 8.27 -3.68 14.54 -3 21 C-8.97014925 24.58208955 -8.97014925 24.58208955 -12 25 C-12.66 24.67 -13.32 24.34 -14 24 C-13.67 24.66 -13.34 25.32 -13 26 C-12.7814195 27.44762433 -12.60984317 28.9025398 -12.46484375 30.359375 C-12.37783203 31.22820312 -12.29082031 32.09703125 -12.20117188 32.9921875 C-12.11416016 33.90226562 -12.02714844 34.81234375 -11.9375 35.75 C-11.84662109 36.64460938 -11.75574219 37.53921875 -11.66210938 38.4609375 C-11.21760648 42.99286173 -10.88674942 47.43977672 -11 52 C-11.99 52 -12.98 52 -14 52 C-15.652344 47.51506629 -16.60840703 43.07295641 -17.4921875 38.39453125 C-17.9897651 35.81592454 -17.9897651 35.81592454 -19.125 32.6875 C-20.01436017 29.95589378 -20.16770187 27.85093177 -20 25 C-21.98 25 -23.96 25 -26 25 C-25.34 23.68 -24.68 22.36 -24 21 C-23.34 21 -22.68 21 -22 21 C-22.66 20.34 -23.32 19.68 -24 19 C-24.66 18.34 -25.32 17.68 -26 17 C-26 16.01 -26 15.02 -26 14 C-21.38 14 -16.76 14 -12 14 C-10.34445298 10.68890596 -9.7206728 9.20672799 -9.375 5.75 C-9.25125 4.5125 -9.1275 3.275 -9 2 C-9.66 2 -10.32 2 -11 2 C-11.33 3.32 -11.66 4.64 -12 6 C-12.66 5.34 -13.32 4.68 -14 4 C-14 3.01 -14 2.02 -14 1 C-9.27616037 0.34843591 -4.78025483 -0.11950637 0 0 Z " fill="#17391D" transform="translate(69,34)"/>
<path d="M0 0 C4.6016432 8.39565107 3.05976687 18.50848074 1.3125 27.5625 C1.1578125 28.7690625 1.1578125 28.7690625 1 30 C1.66 30.66 2.32 31.32 3 32 C2.34 32.37125 1.68 32.7425 1 33.125 C-1.26735791 34.87576711 -1.26735791 34.87576711 -1.5 37.8125 C-0.78977786 42.34016612 1.27049527 45.51756738 4.75 48.5 C6.7015109 50.84181309 6.19510247 53.073463 6 56 C4.68 56 3.36 56 2 56 C2 54.02 2 52.04 2 50 C0.68 50 -0.64 50 -2 50 C-1.814375 51.093125 -1.62875 52.18625 -1.4375 53.3125 C-1 57 -1 57 -2 60 C-4.31 59.67 -6.62 59.34 -9 59 C-8.01 58.505 -8.01 58.505 -7 58 C-7.04640625 57.02160156 -7.0928125 56.04320312 -7.140625 55.03515625 C-7.35642064 47.19715043 -7.18089327 40.88727507 -3 34 C-3.804375 33.71125 -4.60875 33.4225 -5.4375 33.125 C-8 32 -8 32 -9 30 C-11.01669827 28.86649466 -11.01669827 28.86649466 -13 28 C-9.04 27.505 -9.04 27.505 -5 27 C-1.19842598 18.03914695 0.73105071 10.32762678 -3 1 C-2.01 0.67 -1.02 0.34 0 0 Z " fill="#213E21" transform="translate(92,59)"/>
<path d="M0 0 C3.63 0 7.26 0 11 0 C13 2 13 2 13.25 5.4375 C13 9 13 9 11 12 C11.66 12 12.32 12 13 12 C14.55774936 15.11549872 14.56480622 18.6044388 14 22 C13.01 22.99 12.02 23.98 11 25 C7.37 25 3.74 25 0 25 C0 16.75 0 8.5 0 0 Z " fill="#DEDCC8" transform="translate(47,92)"/>
<path d="M0 0 C3.625 0.25 3.625 0.25 5.30078125 1.4453125 C8.37317539 5.63246912 7.90403886 11.93942212 7.3046875 16.90234375 C6.10679735 22.76820265 6.10679735 22.76820265 3.625 25.25 C0.125 25.5625 0.125 25.5625 -3.375 25.25 C-7.22333699 19.47749452 -6.78021545 12.2649234 -5.5 5.625 C-4.31167578 0.31938339 -4.31167578 0.31938339 0 0 Z " fill="#E4E1CE" transform="translate(68.375,91.75)"/>
<path d="M0 0 C2.58422459 0.11418667 5.16679513 0.24092362 7.75 0.375 C8.47960937 0.4059375 9.20921875 0.436875 9.9609375 0.46875 C13.73942656 0.6748494 16.77946668 0.91512843 20 3 C19.360625 3.268125 18.72125 3.53625 18.0625 3.8125 C15.66868314 4.88667752 15.66868314 4.88667752 15 8 C14.34 8 13.68 8 13 8 C13 7.34 13 6.68 13 6 C12.34 6 11.68 6 11 6 C11 5.01 11 4.02 11 3 C9.68 3.33 8.36 3.66 7 4 C6.67 6.97 6.34 9.94 6 13 C6.33 12.67 6.66 12.34 7 12 C8.66617115 11.95936168 10.33388095 11.957279 12 12 C12 12.99 12 13.98 12 15 C9.69 15.66 7.38 16.32 5 17 C4.34 20.3 3.68 23.6 3 27 C4.65 27 6.3 27 8 27 C8 26.01 8 25.02 8 24 C8.99 23.67 9.98 23.34 11 23 C11 25.31 11 27.62 11 30 C6.2086952 30.09778173 1.73278814 29.72156554 -3 29 C-2.86722656 27.99582031 -2.73445313 26.99164063 -2.59765625 25.95703125 C-1.47505721 17.31577742 -0.56604776 8.69926038 0 0 Z " fill="#E1DAC7" transform="translate(95,59)"/>
<path d="M0 0 C1.875 0.625 1.875 0.625 4 2 C5.25 5.125 5.25 5.125 6 8 C7.32 7.34 8.64 6.68 10 6 C10.39599527 13.2599132 9.46483521 19.51523298 5.1875 25.5625 C2.29629833 27.46243252 0.39420545 27.36893538 -3 27 C-3.66 26.67 -4.32 26.34 -5 26 C-5 24.02 -5 22.04 -5 20 C-4.01 20.33 -3.02 20.66 -2 21 C-2.020625 19.906875 -2.04125 18.81375 -2.0625 17.6875 C-2 14 -2 14 -1 11 C-0.95635078 9.29222439 -0.96016632 7.58286886 -1 5.875 C-1.03767103 4.25043671 -1.04657584 2.62433238 -1 1 C-0.67 0.67 -0.34 0.34 0 0 Z " fill="#D1CBB9" transform="translate(82,60)"/>
<path d="M0 0 C0.66 0 1.32 0 2 0 C2 8.58 2 17.16 2 26 C1.01 26 0.02 26 -1 26 C-1.96070434 23.11788698 -2.10581883 21.30149956 -2.0625 18.3125 C-2.05347656 17.50425781 -2.04445313 16.69601563 -2.03515625 15.86328125 C-2.02355469 15.24839844 -2.01195312 14.63351563 -2 14 C-3.31471568 14.28151087 -4.62675767 14.57553339 -5.9375 14.875 C-7.03384766 15.11863281 -7.03384766 15.11863281 -8.15234375 15.3671875 C-10.20700294 15.82961523 -10.20700294 15.82961523 -11 18 C-9.68 18 -8.36 18 -7 18 C-6.67 20.97 -6.34 23.94 -6 27 C-7.32 27 -8.64 27 -10 27 C-13.52105913 19.47773732 -15.35449298 12.33058494 -15 4 C-13.68 4 -12.36 4 -11 4 C-10 5 -10 5 -9.9375 8.0625 C-9.958125 9.031875 -9.97875 10.00125 -10 11 C-8.02 10.67 -6.04 10.34 -4 10 C-4 9.01 -4 8.02 -4 7 C-3.01 6.67 -2.02 6.34 -1 6 C-0.67 4.02 -0.34 2.04 0 0 Z " fill="#233D21" transform="translate(37,62)"/>
<path d="M0 0 C3.18892149 3.46621901 3.77065225 6.33659584 4 11 C3.42436776 14.74477236 2.46304699 18.36177167 1.43359375 22.00390625 C0.96785873 24.14796565 0.90098649 26.05918969 0.9375 28.25 C0.958125 29.4875 0.97875 30.725 1 32 C0.34 32 -0.32 32 -1 32 C-0.67 32.99 -0.34 33.98 0 35 C-1.98 35.495 -1.98 35.495 -4 36 C-4 36.99 -4 37.98 -4 39 C-5.65 38.34 -7.3 37.68 -9 37 C-9 36.34 -9 35.68 -9 35 C-9.99 34.67 -10.98 34.34 -12 34 C-10.84826645 31.53199953 -9.95216435 29.95216435 -8 28 C-8 27.01 -8 26.02 -8 25 C-6.02 24.34 -4.04 23.68 -2 23 C-3.32 21.68 -4.64 20.36 -6 19 C-5.51660156 18.60425781 -5.03320312 18.20851563 -4.53515625 17.80078125 C-2.58402479 15.51204943 -2.57908982 14.16088619 -2.4375 11.1875 C-2.1548976 7.16630334 -1.49191204 3.7795105 0 0 Z " fill="#234127" transform="translate(117,74)"/>
<path d="M0 0 C0.70125 0.00515625 1.4025 0.0103125 2.125 0.015625 C2.82625 0.01046875 3.5275 0.0053125 4.25 0 C6.125 0.265625 6.125 0.265625 8.125 2.265625 C8.84427295 4.58328229 9.5159893 6.91658374 10.125 9.265625 C7.815 9.265625 5.505 9.265625 3.125 9.265625 C3.455 6.955625 3.785 4.645625 4.125 2.265625 C2.805 2.265625 1.485 2.265625 0.125 2.265625 C1.31910349 7.80192302 2.72933451 10.43350637 7.125 14.265625 C8.125 15.265625 8.125 15.265625 8.375 19.140625 C8.32464878 21.69022759 8.24140524 23.03966188 7.0625 25.328125 C3.92013385 26.84862475 1.42807292 26.04635133 -1.875 25.265625 C-4.63723278 22.50339222 -4.45356291 20.05855883 -4.875 16.265625 C-2.895 16.265625 -0.915 16.265625 1.125 16.265625 C0.795 18.575625 0.465 20.885625 0.125 23.265625 C1.445 23.265625 2.765 23.265625 4.125 23.265625 C3.795 20.625625 3.465 17.985625 3.125 15.265625 C2.135 14.935625 1.145 14.605625 0.125 14.265625 C-2.42993155 11.12670909 -3.78259977 9.066427 -4.25 5.015625 C-3.8235085 1.88802068 -3.29262281 0.4664549 0 0 Z " fill="#DFDCCB" transform="translate(93.875,91.734375)"/>
<path d="M0 0 C11 0 11 0 14.1875 1.9375 C16.62494858 6.0559476 16.45772706 9.33118401 16 14 C15.34 12.68 14.68 11.36 14 10 C13.34 10.66 12.68 11.32 12 12 C11.01 9.03 10.02 6.06 9 3 C8.34 3 7.68 3 7 3 C7.01160156 3.85464844 7.02320312 4.70929687 7.03515625 5.58984375 C7.04417969 6.69457031 7.05320312 7.79929687 7.0625 8.9375 C7.07410156 10.03964844 7.08570312 11.14179687 7.09765625 12.27734375 C7 15 7 15 6 16 C5.63239269 18.32817964 5.29758419 20.6618385 5 23 C4.34 23 3.68 23 3 23 C2.67 24.65 2.34 26.3 2 28 C1.34 27.67 0.68 27.34 0 27 C0 18.09 0 9.18 0 0 Z " fill="#E8DFCE" transform="translate(75,58)"/>
<path d="M0 0 C1.98 0 3.96 0 6 0 C6.66 1.32 7.32 2.64 8 4 C8.33 2.68 8.66 1.36 9 0 C10.98 0 12.96 0 15 0 C14.72285156 0.54785156 14.44570312 1.09570312 14.16015625 1.66015625 C10.60670507 9.43728249 10.22518202 16.55567435 10 25 C8.35 25 6.7 25 5 25 C4.97421875 24.03320312 4.9484375 23.06640625 4.921875 22.0703125 C4.5681069 13.94972662 3.73289583 7.37898014 0 0 Z " fill="#D9D2C0" transform="translate(75,92)"/>
<path d="M0 0 C1.65 0 3.3 0 5 0 C4.67 2.97 4.34 5.94 4 9 C5.32 9 6.64 9 8 9 C8 6.03 8 3.06 8 0 C9.32 0 10.64 0 12 0 C12.11381955 6.76594019 11.88021369 13.28837062 11 20 C9.68 19.67 8.36 19.34 7 19 C7.33 16.36 7.66 13.72 8 11 C6.68 11 5.36 11 4 11 C4.33 13.97 4.66 16.94 5 20 C3.68 20 2.36 20 1 20 C0.67 13.4 0.34 6.8 0 0 Z " fill="#ECE8D7" transform="translate(70,34)"/>
<path d="M0 0 C0.99 0 1.98 0 3 0 C3 0.66 3 1.32 3 2 C3.99 2 4.98 2 6 2 C6 10.58 6 19.16 6 28 C2 27 2 27 0.6640625 25.29296875 C0.32117188 24.59816406 -0.02171875 23.90335938 -0.375 23.1875 C-0.73335938 22.50042969 -1.09171875 21.81335938 -1.4609375 21.10546875 C-2 19 -2 19 -1.1640625 16.86328125 C-0.77992187 16.24839844 -0.39578125 15.63351563 0 15 C2.19218189 10.61563621 1.15774649 4.63098598 0 0 Z " fill="#233F22" transform="translate(70,57)"/>
<path d="M0 0 C9 0 9 0 11 1 C11 2.32 11 3.64 11 5 C10.01 4.67 9.02 4.34 8 4 C8 3.34 8 2.68 8 2 C6.68 2 5.36 2 4 2 C4.33 4.31 4.66 6.62 5 9 C6.32 8.67 7.64 8.34 9 8 C9 8.99 9 9.98 9 11 C7.68 11.33 6.36 11.66 5 12 C4.67 14.31 4.34 16.62 4 19 C4.99 19 5.98 19 7 19 C7 18.01 7 17.02 7 16 C7.66 16 8.32 16 9 16 C9 17.65 9 19.3 9 21 C5.7 21 2.4 21 -1 21 C-0.67 14.07 -0.34 7.14 0 0 Z " fill="#D9DAC8" transform="translate(84,34)"/>
<path d="M0 0 C0.99 0.33 1.98 0.66 3 1 C3 1.99 3 2.98 3 4 C3.99 3.67 4.98 3.34 6 3 C6 3.66 6 4.32 6 5 C6.969375 5.2475 7.93875 5.495 8.9375 5.75 C9.948125 6.1625 10.95875 6.575 12 7 C12.875 9.125 12.875 9.125 13 11 C13.99 11 14.98 11 16 11 C15.67 13.97 15.34 16.94 15 20 C14.34 20 13.68 20 13 20 C10 13.375 10 13.375 10 10 C2.03201855 6.10077503 -6.29462571 6.28688165 -15 6 C-15 5.34 -15 4.68 -15 4 C-14.01 4 -13.02 4 -12 4 C-11.67 3.34 -11.34 2.68 -11 2 C-8.36 2 -5.72 2 -3 2 C-2.67 2.66 -2.34 3.32 -2 4 C-1.34 2.68 -0.68 1.36 0 0 Z " fill="#15381E" transform="translate(109,54)"/>
<path d="M0 0 C0 1.98 0 3.96 0 6 C-0.99 5.67 -1.98 5.34 -3 5 C-3 4.01 -3 3.02 -3 2 C-3.66 2 -4.32 2 -5 2 C-4.34 8.27 -3.68 14.54 -3 21 C-4.65 21 -6.3 21 -8 21 C-8.82351864 14.61773055 -9.12086218 8.43255401 -9 2 C-9.66 2 -10.32 2 -11 2 C-11.33 3.32 -11.66 4.64 -12 6 C-12.66 5.34 -13.32 4.68 -14 4 C-14 3.01 -14 2.02 -14 1 C-9.27616037 0.34843591 -4.78025483 -0.11950637 0 0 Z " fill="#D2D2C0" transform="translate(69,34)"/>
<path d="M0 0 C2.26979665 -0.10794277 4.54105196 -0.18556176 6.8125 -0.25 C8.07707031 -0.29640625 9.34164062 -0.3428125 10.64453125 -0.390625 C14 0 14 0 15.9375 1.75 C17.62148263 5.31608086 17.19533143 8.09337133 17 12 C15.109375 11.75390625 15.109375 11.75390625 13 11 C11.953125 9.15234375 11.953125 9.15234375 11.25 6.9375 C11.00765625 6.20402344 10.7653125 5.47054687 10.515625 4.71484375 C10.26039062 3.86599609 10.26039062 3.86599609 10 3 C9.01 3 8.02 3 7 3 C6.67 6.63 6.34 10.26 6 14 C4.68 13.67 3.36 13.34 2 13 C1.34 8.71 0.68 4.42 0 0 Z " fill="#EFE4D3" transform="translate(55,58)"/>
<path d="M0 0 C1.32 0 2.64 0 4 0 C4 0.99 4 1.98 4 3 C4.66 3 5.32 3 6 3 C6 3.66 6 4.32 6 5 C6.66 5 7.32 5 8 5 C8.33 3.35 8.66 1.7 9 0 C9.99 0.33 10.98 0.66 12 1 C11.34 4.63 10.68 8.26 10 12 C8.68 12.33 7.36 12.66 6 13 C5.67 12.01 5.34 11.02 5 10 C1.37114676 9.84850702 1.37114676 9.84850702 -2 11 C-1.85957123 9.35369672 -1.71250671 7.70795821 -1.5625 6.0625 C-1.48128906 5.14597656 -1.40007812 4.22945313 -1.31640625 3.28515625 C-1 1 -1 1 0 0 Z " fill="#14361A" transform="translate(102,62)"/>
<path d="M0 0 C1.32 0 2.64 0 4 0 C4 2.64 4 5.28 4 8 C4.99 8.33 5.98 8.66 7 9 C7 6.03 7 3.06 7 0 C7.33 0 7.66 0 8 0 C8.02688151 1.64574566 8.04634123 3.29161413 8.0625 4.9375 C8.07410156 5.85402344 8.08570312 6.77054688 8.09765625 7.71484375 C8 10 8 10 7 11 C8.98 11 10.96 11 13 11 C12.67 11.66 12.34 12.32 12 13 C9.05859375 13.4140625 9.05859375 13.4140625 5.4375 13.625 C4.23996094 13.69976562 3.04242188 13.77453125 1.80859375 13.8515625 C0.41833984 13.92503906 0.41833984 13.92503906 -1 14 C-1 13.34 -1 12.68 -1 12 C-1.99 12 -2.98 12 -4 12 C-4.33 12.66 -4.66 13.32 -5 14 C-7.64 13.67 -10.28 13.34 -13 13 C-13 12.67 -13 12.34 -13 12 C-10.36 12 -7.72 12 -5 12 C-4.34 10.68 -3.68 9.36 -3 8 C-2.01 8 -1.02 8 0 8 C0 5.36 0 2.72 0 0 Z " fill="#3C5239" transform="translate(74,45)"/>
<path d="M0 0 C1.32 0.66 2.64 1.32 4 2 C4.08126109 4.72977064 4.14061663 7.4571017 4.1875 10.1875 C4.22520508 11.34088867 4.22520508 11.34088867 4.26367188 12.51757812 C4.32335032 17.15260383 4.08905704 20.26770105 1 24 C0.34 24 -0.32 24 -1 24 C-1.02887236 20.18751574 -1.04675492 16.3750593 -1.0625 12.5625 C-1.07087891 11.47388672 -1.07925781 10.38527344 -1.08789062 9.26367188 C-1.09111328 8.22919922 -1.09433594 7.19472656 -1.09765625 6.12890625 C-1.10289307 5.17056885 -1.10812988 4.21223145 -1.11352539 3.22485352 C-1 1 -1 1 0 0 Z " fill="#1A391A" transform="translate(82,60)"/>
<path d="M0 0 C4.29 0.66 8.58 1.32 13 2 C13 2.66 13 3.32 13 4 C11.02 4.99 9.04 5.98 7 7 C7 7.33 7 7.66 7 8 C4.69 8 2.38 8 0 8 C-0.33 8.99 -0.66 9.98 -1 11 C-3.0625 11.6875 -3.0625 11.6875 -5 12 C-5.625 9.625 -5.625 9.625 -6 7 C-5.34 6.34 -4.68 5.68 -4 5 C-3.01 5 -2.02 5 -1 5 C-0.67 3.35 -0.34 1.7 0 0 Z " fill="#294529" transform="translate(44,41)"/>
<path d="M0 0 C2.29996485 1.72497364 3.81771456 3.04635934 4.37109375 5.94140625 C4.46448642 8.92447799 4.31570892 11.38715327 2.9375 14.0625 C-0.20486615 15.58299975 -2.69692708 14.78072633 -6 14 C-8.76223278 11.23776722 -8.57856291 8.79293383 -9 5 C-7.02 5 -5.04 5 -3 5 C-3.33 7.31 -3.66 9.62 -4 12 C-2.68 12 -1.36 12 0 12 C-0.12375 10.700625 -0.2475 9.40125 -0.375 8.0625 C-0.44460937 7.33160156 -0.51421875 6.60070312 -0.5859375 5.84765625 C-0.72257812 5.23792969 -0.85921875 4.62820312 -1 4 C-1.66 3.67 -2.32 3.34 -3 3 C-2.01 2.01 -1.02 1.02 0 0 Z " fill="#D0D0BF" transform="translate(98,103)"/>
<path d="M0 0 C0.99 0.33 1.98 0.66 3 1 C4.00496852 4.01490557 4.10335303 6.04181692 4.0625 9.1875 C4.05347656 10.08855469 4.04445313 10.98960938 4.03515625 11.91796875 C4.02355469 12.60503906 4.01195313 13.29210937 4 14 C5.65 14 7.3 14 9 14 C9 13.01 9 12.02 9 11 C9.99 10.67 10.98 10.34 12 10 C12 12.31 12 14.62 12 17 C7.10485037 17.09990101 2.92476913 16.70353845 -2 16 C-1.34 10.72 -0.68 5.44 0 0 Z " fill="#D6D2C1" transform="translate(94,72)"/>
<path d="M0 0 C0.66 0.66 1.32 1.32 2 2 C2.99 1.67 3.98 1.34 5 1 C6.16896069 4.50688207 5.74754734 5.35813116 4.5625 8.75 C3.16686898 13.07645617 2.70533359 16.48178179 3 21 C0.69 20.67 -1.62 20.34 -4 20 C-2.68 13.4 -1.36 6.8 0 0 Z " fill="#F0E5D2" transform="translate(112,70)"/>
<path d="M0 0 C1.32 0 2.64 0 4 0 C4 6.6 4 13.2 4 20 C2.68 20.33 1.36 20.66 0 21 C0 14.07 0 7.14 0 0 Z " fill="#3A4D33" transform="translate(67,94)"/>
<path d="M0 0 C1.65 0.33 3.3 0.66 5 1 C4.67 1.66 4.34 2.32 4 3 C4.99 3.99 5.98 4.98 7 6 C4.63686392 7.44413871 2.30485613 8.85192702 -0.1875 10.0625 C-2.17822239 10.97608662 -2.17822239 10.97608662 -4 13 C-4 12.34 -4 11.68 -4 11 C-4.66 10.67 -5.32 10.34 -6 10 C-6 8.35 -6 6.7 -6 5 C-4 4 -2 3 0 2 C0 1.34 0 0.68 0 0 Z " fill="#113315" transform="translate(109,91)"/>
<path d="M0 0 C1.32 0.66 2.64 1.32 4 2 C4 2.66 4 3.32 4 4 C3.34 4 2.68 4 2 4 C2 5.98 2 7.96 2 10 C3.93109581 10.04289755 3.93109581 10.04289755 6 9 C7.79271391 5.51202512 7.79271391 5.51202512 9 2 C9.33 2 9.66 2 10 2 C10.1953125 8.0546875 10.1953125 8.0546875 10 10 C8 12 8 12 5.3984375 12.1953125 C4.40070312 12.17210938 3.40296875 12.14890625 2.375 12.125 C0.87066406 12.09792969 0.87066406 12.09792969 -0.6640625 12.0703125 C-1.43492188 12.04710938 -2.20578125 12.02390625 -3 12 C-2.69230293 10.18667846 -2.37870936 8.37435655 -2.0625 6.5625 C-1.80146484 5.04849609 -1.80146484 5.04849609 -1.53515625 3.50390625 C-1 1 -1 1 0 0 Z " fill="#E8E3D0" transform="translate(50,105)"/>
<path d="M0 0 C0.33 0 0.66 0 1 0 C1.66 4.62 2.32 9.24 3 14 C3.99 14.33 4.98 14.66 6 15 C3.04335481 16.4783226 0.25770263 16.06032783 -3 16 C-3 13.36 -3 10.72 -3 8 C-4.65 8 -6.3 8 -8 8 C-6.68 7.67 -5.36 7.34 -4 7 C-3.67 5.35 -3.34 3.7 -3 2 C-2.34 2.66 -1.68 3.32 -1 4 C-0.67 2.68 -0.34 1.36 0 0 Z " fill="#CFCAB8" transform="translate(52,72)"/>
<path d="M0 0 C1.32 0.99 2.64 1.98 4 3 C3.01 6.96 2.02 10.92 1 15 C-0.98 15 -2.96 15 -5 15 C-4.67 13.783125 -4.34 12.56625 -4 11.3125 C-3.33616616 8.72583709 -3.00387877 6.82157639 -3.0625 4.125 C-3.041875 3.42375 -3.02125 2.7225 -3 2 C-2.01 1.34 -1.02 0.68 0 0 Z " fill="#E3DAC5" transform="translate(123,78)"/>
<path d="M0 0 C2.64 0 5.28 0 8 0 C6.37660195 1.70884005 4.70680947 3.37446717 3 5 C2.34 5 1.68 5 1 5 C1.33 6.65 1.66 8.3 2 10 C3.32 9.67 4.64 9.34 6 9 C6 7.35 6 5.7 6 4 C6.66 4 7.32 4 8 4 C8 4.66 8 5.32 8 6 C8.66 6.33 9.32 6.66 10 7 C9.34 7 8.68 7 8 7 C8.33 7.99 8.66 8.98 9 10 C7.68 10.33 6.36 10.66 5 11 C5 11.99 5 12.98 5 14 C2.525 13.01 2.525 13.01 0 12 C0 11.34 0 10.68 0 10 C-0.99 9.67 -1.98 9.34 -3 9 C-1.84826645 6.53199953 -0.95216435 4.95216435 1 3 C0.67 2.01 0.34 1.02 0 0 Z " fill="#779074" transform="translate(108,99)"/>
<path d="M0 0 C3.15879158 3.43346911 3.7571492 6.38583487 4 11 C3.0625 13.9375 3.0625 13.9375 2 16 C1.01 15.67 0.02 15.34 -1 15 C-3.01124138 10.97751725 -2.21604913 6.74266888 -1 2.5625 C-0.67 1.716875 -0.34 0.87125 0 0 Z " fill="#1A391E" transform="translate(117,74)"/>
<path d="M0 0 C0.928125 0.20625 1.85625 0.4125 2.8125 0.625 C1.8225 2.605 0.8325 4.585 -0.1875 6.625 C-0.8475 6.625 -1.5075 6.625 -2.1875 6.625 C-2.1875 7.615 -2.1875 8.605 -2.1875 9.625 C-3.8375 9.625 -5.4875 9.625 -7.1875 9.625 C-6.69921875 3.5703125 -6.69921875 3.5703125 -6.1875 1.625 C-3.1875 -0.375 -3.1875 -0.375 0 0 Z " fill="#113214" transform="translate(105.1875,76.375)"/>
<path d="M0 0 C3.69230769 0.69230769 3.69230769 0.69230769 5 2 C5.47184987 9.31367292 5.47184987 9.31367292 3.625 12 C2 13 2 13 0 13 C0.33 11.35 0.66 9.7 1 8 C0.34 7.67 -0.32 7.34 -1 7 C-1.04254356 5.00045254 -1.04080783 2.99958364 -1 1 C-0.67 0.67 -0.34 0.34 0 0 Z " fill="#3D5036" transform="translate(62,60)"/>
<path d="M0 0 C4.121074 7.51885746 3.00051234 15.76501384 2 24 C-0.81268194 19.78097709 -1.06091106 15.96492191 -0.9375 11 C-0.87405297 7.33417148 -1.62980961 4.42547598 -3 1 C-2.01 0.67 -1.02 0.34 0 0 Z " fill="#213B1E" transform="translate(92,59)"/>
<path d="M0 0 C0.99 0 1.98 0 3 0 C5.50014115 3.74095194 4.90042304 6.44209421 4.125 10.75 C3.81949219 12.50570312 3.81949219 12.50570312 3.5078125 14.296875 C3.25644531 15.63492188 3.25644531 15.63492188 3 17 C2.01 17 1.02 17 0 17 C-1.33257403 5.47835991 -1.33257403 5.47835991 0 0 Z " fill="#EBE3D2" transform="translate(63,97)"/>
<path d="M0 0 C0.33 0 0.66 0 1 0 C1.66 6.27 2.32 12.54 3 19 C2.01 19 1.02 19 0 19 C0 19.99 0 20.98 0 22 C-4.62 22 -9.24 22 -14 22 C-14 21.67 -14 21.34 -14 21 C-12.84371094 20.92652344 -12.84371094 20.92652344 -11.6640625 20.8515625 C-10.66117188 20.77679688 -9.65828125 20.70203125 -8.625 20.625 C-7.12839844 20.52058594 -7.12839844 20.52058594 -5.6015625 20.4140625 C-2.84491121 20.23636036 -2.84491121 20.23636036 -1 18 C-0.75712511 15.55987051 -0.75712511 15.55987051 -0.875 12.875 C-0.89304687 11.96492188 -0.91109375 11.05484375 -0.9296875 10.1171875 C-0.95289063 9.41851562 -0.97609375 8.71984375 -1 8 C-1.66 8 -2.32 8 -3 8 C-3 7.34 -3 6.68 -3 6 C-2.01 6 -1.02 6 0 6 C0 4.02 0 2.04 0 0 Z " fill="#38482F" transform="translate(61,96)"/>
<path d="M0 0 C1.32 0 2.64 0 4 0 C4.5775 0.804375 5.155 1.60875 5.75 2.4375 C8.22631315 5.25774554 8.72310452 5.40268468 12.25 5.8125 C13.4875 5.874375 14.725 5.93625 16 6 C12.46588679 8.12046792 9.05606165 8.53199289 5 9 C5 8.01 5 7.02 5 6 C3.35 6.66 1.7 7.32 0 8 C0 5.36 0 2.72 0 0 Z " fill="#344C2F" transform="translate(88,36)"/>
<path d="M0 0 C2 1 2 1 2.6328125 2.85546875 C3.5740148 7.31497489 4.23530026 11.41164496 4 16 C3.01 16 2.02 16 1 16 C-1.06149392 10.97510856 -1.4857159 6.3654663 -1 1 C-0.67 0.67 -0.34 0.34 0 0 Z " fill="#213B20" transform="translate(54,70)"/>
<path d="M0 0 C0.66 0.33 1.32 0.66 2 1 C2 2.32 2 3.64 2 5 C3.32 5.33 4.64 5.66 6 6 C5.34 4.68 4.68 3.36 4 2 C4.66 2 5.32 2 6 2 C6 1.34 6 0.68 6 0 C6.99 0.33 7.98 0.66 9 1 C9.33 2.65 9.66 4.3 10 6 C9.34 6 8.68 6 8 6 C8 6.66 8 7.32 8 8 C6.35 8.66 4.7 9.32 3 10 C3 9.01 3 8.02 3 7 C1.68 6.67 0.36 6.34 -1 6 C-0.67 5.01 -0.34 4.02 0 3 C-0.66 2.67 -1.32 2.34 -2 2 C-1.34 2 -0.68 2 0 2 C0 1.34 0 0.68 0 0 Z " fill="#6E8569" transform="translate(34,103)"/>
<path d="M0 0 C0.99 0 1.98 0 3 0 C4.625 2.625 4.625 2.625 6 6 C5.1875 9.375 5.1875 9.375 4 12 C1.69 12 -0.62 12 -3 12 C-2.67 11.34 -2.34 10.68 -2 10 C-1.01 10 -0.02 10 1 10 C0.67 9.34 0.34 8.68 0 8 C-0.13415472 5.3276379 -0.04318541 2.67749512 0 0 Z " fill="#103114" transform="translate(65,45)"/>
<path d="M0 0 C0.99 0.495 0.99 0.495 2 1 C2 1.66 2 2.32 2 3 C3.32 3 4.64 3 6 3 C6.33 5.97 6.66 8.94 7 12 C5.68 12 4.36 12 3 12 C-0.42857143 4.71428571 -0.42857143 4.71428571 0 0 Z " fill="#2C4429" transform="translate(24,77)"/>
<path d="M0 0 C0.33 0 0.66 0 1 0 C1 3.3 1 6.6 1 10 C2.32 9.01 3.64 8.02 5 7 C5 7.66 5 8.32 5 9 C5.99 9.33 6.98 9.66 8 10 C6.875 11.5 6.875 11.5 5 13 C1.90498792 13.25265405 -0.20129973 13.39935013 -3 12 C-3 10.02 -3 8.04 -3 6 C-2.01 6.33 -1.02 6.66 0 7 C0 4.69 0 2.38 0 0 Z " fill="#C6C8B5" transform="translate(80,74)"/>
<path d="M0 0 C0.66 0 1.32 0 2 0 C2.99 4.29 3.98 8.58 5 13 C3.68 13.33 2.36 13.66 1 14 C1 15.98 1 17.96 1 20 C0.67 20 0.34 20 0 20 C0 18.35 0 16.7 0 15 C-0.66 14.67 -1.32 14.34 -2 14 C-1.67 13.01 -1.34 12.02 -1 11 C-0.77820215 9.10787263 -0.59385985 7.21115528 -0.4375 5.3125 C-0.35371094 4.31863281 -0.26992188 3.32476562 -0.18359375 2.30078125 C-0.12300781 1.54152344 -0.06242187 0.78226562 0 0 Z " fill="#B6B49F" transform="translate(43,64)"/>
<path d="M0 0 C1.98 0 3.96 0 6 0 C5.67 3.96 5.34 7.92 5 12 C4.67 11.34 4.34 10.68 4 10 C3.34 10 2.68 10 2 10 C1.67 11.32 1.34 12.64 1 14 C0.67 9.38 0.34 4.76 0 0 Z " fill="#ECE6D1" transform="translate(38,60)"/>
<path d="M0 0 C2.97 0 5.94 0 9 0 C8.01 0.66 7.02 1.32 6 2 C5.42006301 4.19454681 5.42006301 4.19454681 5.3125 6.625 C5.24675781 7.44226563 5.18101563 8.25953125 5.11328125 9.1015625 C5.07589844 9.72804688 5.03851563 10.35453125 5 11 C4.01 11.33 3.02 11.66 2 12 C0.78306124 9.56612247 0.68040104 7.58161154 0.4375 4.875 C0.35371094 3.96492188 0.26992188 3.05484375 0.18359375 2.1171875 C0.12300781 1.41851562 0.06242187 0.71984375 0 0 Z " fill="#E8DFCE" transform="translate(47,92)"/>
<path d="M0 0 C2.33944736 0.28730055 4.6739143 0.61936779 7 1 C6.649375 1.928125 6.29875 2.85625 5.9375 3.8125 C4.67617372 6.9802953 4.67617372 6.9802953 6 10 C4.125 9.8125 4.125 9.8125 2 9 C0.75 6.4375 0.75 6.4375 0 4 C-0.33 4.66 -0.66 5.32 -1 6 C-1.042721 4.33388095 -1.04063832 2.66617115 -1 1 C-0.67 0.67 -0.34 0.34 0 0 Z " fill="#516A4E" transform="translate(34,99)"/>
<path d="M0 0 C0.66 0 1.32 0 2 0 C2.13277344 0.77085938 2.26554687 1.54171875 2.40234375 2.3359375 C2.57894531 3.33882813 2.75554688 4.34171875 2.9375 5.375 C3.19853516 6.87160156 3.19853516 6.87160156 3.46484375 8.3984375 C3.87712062 10.96909656 3.87712062 10.96909656 5 13 C3.02 13 1.04 13 -1 13 C-1.02696365 11.20841511 -1.04637917 9.41671527 -1.0625 7.625 C-1.07410156 6.62726563 -1.08570313 5.62953125 -1.09765625 4.6015625 C-1 2 -1 2 0 0 Z " fill="#EEE5D4" transform="translate(59,74)"/>
<path d="M0 0 C1.32 0 2.64 0 4 0 C4.08114106 1.77007714 4.13925505 3.54122098 4.1875 5.3125 C4.22230469 6.29863281 4.25710937 7.28476562 4.29296875 8.30078125 C4 11 4 11 2.48828125 12.85546875 C1.99714844 13.23316406 1.50601563 13.61085938 1 14 C1 13.01 1 12.02 1 11 C0.34 10.34 -0.32 9.68 -1 9 C-0.9765625 6.8359375 -0.9765625 6.8359375 -0.625 4.375 C-0.51414062 3.55773438 -0.40328125 2.74046875 -0.2890625 1.8984375 C-0.19367188 1.27195313 -0.09828125 0.64546875 0 0 Z " fill="#DED9C9" transform="translate(78,34)"/>
<path d="M0 0 C-1.98 2.97 -1.98 2.97 -4 6 C-3.34 6.33 -2.68 6.66 -2 7 C-2 7.66 -2 8.32 -2 9 C-1.34 9.33 -0.68 9.66 0 10 C-0.99 10 -1.98 10 -3 10 C-3.99 11.485 -3.99 11.485 -5 13 C-5.99 13 -6.98 13 -8 13 C-8 11.02 -8 9.04 -8 7 C-7.34 7.66 -6.68 8.32 -6 9 C-6.33 6.03 -6.66 3.06 -7 0 C-3 -1 -3 -1 0 0 Z " fill="#314D33" transform="translate(110,102)"/>
<path d="M0 0 C0.33 1.32 0.66 2.64 1 4 C1.99 4 2.98 4 4 4 C3.67 6.97 3.34 9.94 3 13 C2.34 13 1.68 13 1 13 C-2 6.375 -2 6.375 -2 3 C-2.99 2.34 -3.98 1.68 -5 1 C-3.35 0.67 -1.7 0.34 0 0 Z " fill="#32482D" transform="translate(121,61)"/>
<path d="M0 0 C1.65 0 3.3 0 5 0 C5.103125 1.093125 5.20625 2.18625 5.3125 3.3125 C5.97307727 6.85559629 6.2027092 7.93243723 9 10 C7.35 9.67 5.7 9.34 4 9 C4 7.68 4 6.36 4 5 C3.34 6.32 2.68 7.64 2 9 C0 7 0 7 -0.125 3.375 C-0.08375 2.26125 -0.0425 1.1475 0 0 Z " fill="#254024" transform="translate(44,80)"/>
<path d="M0 0 C2.97 0 5.94 0 9 0 C9 0.33 9 0.66 9 1 C6.36 1 3.72 1 1 1 C1.99 3.31 2.98 5.62 4 8 C1.1875 8.625 1.1875 8.625 -2 9 C-2.99 8.34 -3.98 7.68 -5 7 C-4.34 6.67 -3.68 6.34 -3 6 C-3.66 5.67 -4.32 5.34 -5 5 C-4.67 4.01 -4.34 3.02 -4 2 C-2.02 2.495 -2.02 2.495 0 3 C0 2.01 0 1.02 0 0 Z " fill="#2F4B31" transform="translate(54,34)"/>
<path d="M0 0 C0.66 0.66 1.32 1.32 2 2 C1.625 4.625 1.625 4.625 1 7 C-1.475 6.01 -1.475 6.01 -4 5 C-4 4.34 -4 3.68 -4 3 C-6.64 3 -9.28 3 -12 3 C-7.62990259 0.81495129 -5.01522977 -0.31345186 0 0 Z " fill="#7A8B6D" transform="translate(110,46)"/>
<path d="M0 0 C1.32 0 2.64 0 4 0 C5.4783226 2.95664519 5.06032783 5.74229737 5 9 C3.35 9.33 1.7 9.66 0 10 C0 8.02 0 6.04 0 4 C0.66 4 1.32 4 2 4 C2 3.34 2 2.68 2 2 C1.34 2 0.68 2 0 2 C0 1.34 0 0.68 0 0 Z " fill="#2A4024" transform="translate(52,105)"/>
<path d="M0 0 C0 1.98 0 3.96 0 6 C-0.33 5.34 -0.66 4.68 -1 4 C-1.2475 4.804375 -1.495 5.60875 -1.75 6.4375 C-3 9 -3 9 -5.125 9.8125 C-5.74375 9.874375 -6.3625 9.93625 -7 10 C-7.33 8.35 -7.66 6.7 -8 5 C-7.34 5 -6.68 5 -6 5 C-5.731875 4.360625 -5.46375 3.72125 -5.1875 3.0625 C-3.85281567 0.74436405 -2.85138334 0 0 0 Z " fill="#364E33" transform="translate(117,99)"/>
<path d="M0 0 C1.51953125 1.17578125 1.51953125 1.17578125 3 3 C3.07421875 5.48046875 3.07421875 5.48046875 2.6875 8.1875 C2.50767578 9.53908203 2.50767578 9.53908203 2.32421875 10.91796875 C2.21722656 11.60503906 2.11023438 12.29210937 2 13 C-0.96304327 10.27302336 -1.99660291 7.92997195 -3 4 C-2.67 3.34 -2.34 2.68 -2 2 C-1.34 2 -0.68 2 0 2 C0 1.34 0 0.68 0 0 Z " fill="#F2E7D8" transform="translate(21,75)"/>
<path d="M0 0 C1.32 0 2.64 0 4 0 C4 0.99 4 1.98 4 3 C4.66 3.33 5.32 3.66 6 4 C4.02 4.99 4.02 4.99 2 6 C2.99 6.99 3.98 7.98 5 9 C2.69 9.66 0.38 10.32 -2 11 C-1.85957123 9.35369672 -1.71250671 7.70795821 -1.5625 6.0625 C-1.48128906 5.14597656 -1.40007812 4.22945313 -1.31640625 3.28515625 C-1 1 -1 1 0 0 Z " fill="#283E23" transform="translate(102,62)"/>
<path d="M0 0 C7.18421053 0.45614035 7.18421053 0.45614035 11 3 C8.69 3 6.38 3 4 3 C3.67 3.99 3.34 4.98 3 6 C0.9375 6.6875 0.9375 6.6875 -1 7 C-1.625 4.625 -1.625 4.625 -2 2 C-1.34 1.34 -0.68 0.68 0 0 Z " fill="#8DA085" transform="translate(40,46)"/>
<path d="M0 0 C0 1.98 0 3.96 0 6 C-1.32 6 -2.64 6 -4 6 C-4.33 6.99 -4.66 7.98 -5 9 C-5 7.35 -5 5.7 -5 4 C-6.32 4 -7.64 4 -9 4 C-8.67 3.01 -8.34 2.02 -8 1 C-5.23735711 0.40267181 -2.83967231 0 0 0 Z " fill="#D4D1BF" transform="translate(35,76)"/>
<path d="M0 0 C0.66 0 1.32 0 2 0 C2 0.66 2 1.32 2 2 C3.65 2 5.3 2 7 2 C7 2.99 7 3.98 7 5 C7.66 5.33 8.32 5.66 9 6 C8.34 6 7.68 6 7 6 C6.67 7.98 6.34 9.96 6 12 C5.34 11.34 4.68 10.68 4 10 C4 8.68 4 7.36 4 6 C3.01 6 2.02 6 1 6 C0.67 4.02 0.34 2.04 0 0 Z " fill="#2D452B" transform="translate(77,86)"/>
<path d="M0 0 C0.99 0.33 1.98 0.66 3 1 C4.28317892 4.84953676 4.06643637 7.94738135 4 12 C2 11 2 11 1 10 C0.67 10.99 0.34 11.98 0 13 C0 8.71 0 4.42 0 0 Z " fill="#F0E5D5" transform="translate(94,72)"/>
<path d="M0 0 C1.98 0 3.96 0 6 0 C5.938125 1.11375 5.87625 2.2275 5.8125 3.375 C5.874375 4.57125 5.93625 5.7675 6 7 C6.99 7.66 7.98 8.32 9 9 C6.125 9.125 6.125 9.125 3 9 C0.23776722 6.23776722 0.42143709 3.79293383 0 0 Z " fill="#E2E2CE" transform="translate(89,108)"/>
<path d="M0 0 C6.13053511 -0.32712342 10.62669111 -0.39366878 16 3 C13.1528258 4.93607846 11.84582804 4.98954766 8.3125 4.75 C7.219375 4.5025 6.12625 4.255 5 4 C4.67 3.34 4.34 2.68 4 2 C1.98330173 0.86649466 1.98330173 0.86649466 0 0 Z " fill="#123115" transform="translate(79,87)"/>
<path d="M0 0 C0.33 0 0.66 0 1 0 C1 2.97 1 5.94 1 9 C4.39914975 7.86695008 5.05254451 6.87481525 7 4 C7.625 6.375 7.625 6.375 8 9 C6 11 6 11 2.375 11.125 C1.26125 11.08375 0.1475 11.0425 -1 11 C-1 7.25838897 -0.48661829 3.71046443 0 0 Z " fill="#D2D6C5" transform="translate(66,106)"/>
<path d="M0 0 C0.99 0 1.98 0 3 0 C3 4.29 3 8.58 3 13 C2.01 13 1.02 13 0 13 C0 8.71 0 4.42 0 0 Z " fill="#173317" transform="translate(67,102)"/>
<path d="M0 0 C0.99 0 1.98 0 3 0 C4.28317892 3.84953676 4.06643637 6.94738135 4 11 C3.01 11 2.02 11 1 11 C-0.28317892 7.15046324 -0.06643637 4.05261865 0 0 Z " fill="#1C361A" transform="translate(35,77)"/>
<path d="M0 0 C0.33 0 0.66 0 1 0 C1 5.28 1 10.56 1 16 C-3.5 11.5 -3.5 11.5 -5 8 C-4.34 7.34 -3.68 6.68 -3 6 C-2.34 6 -1.68 6 -1 6 C-0.67 4.02 -0.34 2.04 0 0 Z " fill="#2C482D" transform="translate(70,35)"/>
<path d="M0 0 C0.66 0.66 1.32 1.32 2 2 C2.99 1.67 3.98 1.34 5 1 C6.25541557 4.76624671 5.37061958 6.37188934 4 10 C3.01 9.34 2.02 8.68 1 8 C0.34 8 -0.32 8 -1 8 C-0.67 5.36 -0.34 2.72 0 0 Z " fill="#E0D9C6" transform="translate(112,70)"/>
<path d="M0 0 C0.99 0 1.98 0 3 0 C2.979375 0.928125 2.95875 1.85625 2.9375 2.8125 C2.84230396 6.02286011 2.84230396 6.02286011 4 9 C5.32 9 6.64 9 8 9 C7.67 9.99 7.34 10.98 7 12 C6.01 12 5.02 12 4 12 C1.3346765 8.8016118 0.0602752 6.81371525 -0.25 2.625 C-0.12625 1.325625 -0.12625 1.325625 0 0 Z " fill="#E8E2D1" transform="translate(90,94)"/>
<path d="M0 0 C1.32 0.33 2.64 0.66 4 1 C3.67 3.31 3.34 5.62 3 8 C2.34 8 1.68 8 1 8 C0.67 9.65 0.34 11.3 0 13 C-0.66 12.67 -1.32 12.34 -2 12 C-1.85904936 10.3745692 -1.71207913 8.74965949 -1.5625 7.125 C-1.48128906 6.22007813 -1.40007812 5.31515625 -1.31640625 4.3828125 C-1 2 -1 2 0 0 Z " fill="#F3E9D9" transform="translate(77,73)"/>
<path d="M0 0 C-0.33 2.64 -0.66 5.28 -1 8 C-2.65 8.66 -4.3 9.32 -6 10 C-6.8125 7.8125 -6.8125 7.8125 -7 5 C-2.88888889 0 -2.88888889 0 0 0 Z " fill="#1F3F23" transform="translate(38,60)"/>
<path d="M0 0 C0.66 0.33 1.32 0.66 2 1 C1.67 2.98 1.34 4.96 1 7 C1.66 7.33 2.32 7.66 3 8 C2.01 8 1.02 8 0 8 C0.33 8.66 0.66 9.32 1 10 C1.039992 11.99960012 1.04346799 14.00047242 1 16 C-1 13 -1 13 -2 10 C-2.99 9.67 -3.98 9.34 -5 9 C-4.34 8.01 -3.68 7.02 -3 6 C-2.01 6 -1.02 6 0 6 C0 4.02 0 2.04 0 0 Z " fill="#0C2F11" transform="translate(94,50)"/>
<path d="M0 0 C8.75 -0.125 8.75 -0.125 11 1 C11 2.32 11 3.64 11 5 C10.01 4.67 9.02 4.34 8 4 C8 3.34 8 2.68 8 2 C5.69 2 3.38 2 1 2 C1 4.31 1 6.62 1 9 C0.67 9 0.34 9 0 9 C0 6.03 0 3.06 0 0 Z " fill="#AEB8A2" transform="translate(84,34)"/>
<path d="M0 0 C1.32630565 4.14470514 1.98384711 9.03230578 0 13 C-1.65 13 -3.3 13 -5 13 C-4.01 12.67 -3.02 12.34 -2 12 C-2.185625 10.741875 -2.37125 9.48375 -2.5625 8.1875 C-3.00732761 5.17255732 -2.99843846 3.99531539 -2 1 C-1.34 0.67 -0.68 0.34 0 0 Z " fill="#40563D" transform="translate(108,77)"/>
<path d="M0 0 C0.33 0 0.66 0 1 0 C1.125 7.75 1.125 7.75 0 10 C-1.32 10 -2.64 10 -4 10 C-3.67 7.36 -3.34 4.72 -3 2 C-2.34 2 -1.68 2 -1 2 C-0.67 1.34 -0.34 0.68 0 0 Z " fill="#EFE4D4" transform="translate(89,73)"/>
<path d="M0 0 C1.32 0 2.64 0 4 0 C4 2.31 4 4.62 4 7 C2.02 7.99 2.02 7.99 0 9 C0 6.03 0 3.06 0 0 Z " fill="#253A1F" transform="translate(52,94)"/>
<path d="M0 0 C2.97 0 5.94 0 9 0 C8.67 1.32 8.34 2.64 8 4 C4.37 4 0.74 4 -3 4 C-3 3.34 -3 2.68 -3 2 C-2.01 2 -1.02 2 0 2 C0 1.34 0 0.68 0 0 Z " fill="#324F36" transform="translate(97,56)"/>
<path d="M0 0 C2.5 0.9375 2.5 0.9375 5 3 C5.45787911 6.03816258 5.28780586 8.94925785 5 12 C4.34 10.68 3.68 9.36 3 8 C2.34 8.66 1.68 9.32 1 10 C0.67 6.7 0.34 3.4 0 0 Z " fill="#F2EBDA" transform="translate(86,60)"/>
<path d="M0 0 C1.32 0 2.64 0 4 0 C4.33 2.64 4.66 5.28 5 8 C4.67 7.34 4.34 6.68 4 6 C2.68 6.33 1.36 6.66 0 7 C0 4.69 0 2.38 0 0 Z " fill="#F2E6D7" transform="translate(31,82)"/>
<path d="M0 0 C3.14958831 3.42346555 3.56179109 6.44262737 4 11 C3.34 10.01 2.68 9.02 2 8 C1.34 8.99 0.68 9.98 0 11 C-1.26026798 8.47946405 -0.91874445 7.1457902 -0.5625 4.375 C-0.46066406 3.55773437 -0.35882813 2.74046875 -0.25390625 1.8984375 C-0.17011719 1.27195312 -0.08632812 0.64546875 0 0 Z " fill="#2D4127" transform="translate(117,74)"/>
<path d="M0 0 C0.99 0 1.98 0 3 0 C3.66 1.32 4.32 2.64 5 4 C4.01 4.66 3.02 5.32 2 6 C1.42006301 8.19454681 1.42006301 8.19454681 1.3125 10.625 C1.21388672 11.85089844 1.21388672 11.85089844 1.11328125 13.1015625 C1.05720703 14.04128906 1.05720703 14.04128906 1 15 C0.67 15 0.34 15 0 15 C-0.75612577 9.76528314 -1.2063366 5.22745859 0 0 Z " fill="#F6EEDC" transform="translate(63,97)"/>
<path d="M0 0 C0.66 0.33 1.32 0.66 2 1 C2.73075648 3.3140622 3.40138258 5.64828869 4 8 C1.69 8 -0.62 8 -3 8 C-2.67 6.35 -2.34 4.7 -2 3 C-1.34 3 -0.68 3 0 3 C0 2.01 0 1.02 0 0 Z " fill="#D3D8C4" transform="translate(100,93)"/>
<path d="M0 0 C0.33 0 0.66 0 1 0 C1 2.31 1 4.62 1 7 C1.99 7 2.98 7 4 7 C4.36923077 12.53846154 4.36923077 12.53846154 2.5 14.875 C1.7575 15.431875 1.7575 15.431875 1 16 C-0.12862175 10.63904667 -0.09688221 5.44693314 0 0 Z " fill="#C8C7AF" transform="translate(56,64)"/>
<path d="M0 0 C2.31 0.33 4.62 0.66 7 1 C6.360625 1.433125 5.72125 1.86625 5.0625 2.3125 C2.73253997 3.91239177 2.73253997 3.91239177 2 7 C1.34 7 0.68 7 0 7 C0 6.34 0 5.68 0 5 C-0.66 5 -1.32 5 -2 5 C-2 4.01 -2 3.02 -2 2 C-1.34 2 -0.68 2 0 2 C0 1.34 0 0.68 0 0 Z " fill="#B4BDA7" transform="translate(108,60)"/>
<path d="M0 0 C1.32 0.66 2.64 1.32 4 2 C2.88243734 5.86848614 1.97126708 8.28922757 -1 11 C-1.02688151 9.35425434 -1.04634123 7.70838587 -1.0625 6.0625 C-1.07410156 5.14597656 -1.08570312 4.22945313 -1.09765625 3.28515625 C-1 1 -1 1 0 0 Z " fill="#284126" transform="translate(82,60)"/>
<path d="M0 0 C2.0625 0.4375 2.0625 0.4375 4 1 C3.34 3.31 2.68 5.62 2 8 C1.01 8 0.02 8 -1 8 C-1.04241723 5.66705225 -1.04092937 3.33297433 -1 1 C-0.67 0.67 -0.34 0.34 0 0 Z " fill="#19351A" transform="translate(89,45)"/>
<path d="M0 0 C1.98 0 3.96 0 6 0 C4.68 2.64 3.36 5.28 2 8 C0 6 0 6 -0.125 2.875 C-0.08375 1.92625 -0.0425 0.9775 0 0 Z " fill="#E6E4D2" transform="translate(84,92)"/>
<path d="M0 0 C-0.33 0.99 -0.66 1.98 -1 3 C-4.63 3 -8.26 3 -12 3 C-11 1 -11 1 -8 0 C-4.65903756 -0.83524061 -3.3408808 -1.11362693 0 0 Z " fill="#0E2D11" transform="translate(59,88)"/>
<path d="M0 0 C0.66 0.66 1.32 1.32 2 2 C2.66 1.34 3.32 0.68 4 0 C4.33 2.31 4.66 4.62 5 7 C2.69 6.67 0.38 6.34 -2 6 C-1.34 4.02 -0.68 2.04 0 0 Z " fill="#E2E0CD" transform="translate(110,84)"/>
<path d="M0 0 C1.9453125 -0.29296875 1.9453125 -0.29296875 4.125 -0.1875 C5.40375 -0.125625 6.6825 -0.06375 8 0 C8 0.66 8 1.32 8 2 C6.02 2.33 4.04 2.66 2 3 C1.67 4.32 1.34 5.64 1 7 C0.34 7 -0.32 7 -1 7 C-1.625 5.1875 -1.625 5.1875 -2 3 C-1.34 2.01 -0.68 1.02 0 0 Z " fill="#E4DEC9" transform="translate(100,60)"/>
<path d="M0 0 C1.32 0.99 2.64 1.98 4 3 C3.05125 3.103125 2.1025 3.20625 1.125 3.3125 C-2.29107501 3.68539295 -2.29107501 3.68539295 -4 7 C-4.99 7.33 -5.98 7.66 -7 8 C-6.38722388 5.03824877 -5.74627478 3.61941217 -4 1 C-2.68 1.33 -1.36 1.66 0 2 C0 1.34 0 0.68 0 0 Z " fill="#0F3317" transform="translate(38,57)"/>
<path d="M0 0 C0.33 0 0.66 0 1 0 C1 2.64 1 5.28 1 8 C-0.98 8 -2.96 8 -5 8 C-5 5.69 -5 3.38 -5 1 C-4.34 1 -3.68 1 -3 1 C-2.67 1.99 -2.34 2.98 -2 4 C-1.34 4.33 -0.68 4.66 0 5 C0 3.35 0 1.7 0 0 Z " fill="#182E14" transform="translate(69,35)"/>
<path d="M0 0 C0.99 0.33 1.98 0.66 3 1 C3.33 2.65 3.66 4.3 4 6 C3.34 6 2.68 6 2 6 C2 6.66 2 7.32 2 8 C1.01 8 0.02 8 -1 8 C-1.33 6.02 -1.66 4.04 -2 2 C-1.34 2 -0.68 2 0 2 C0 1.34 0 0.68 0 0 Z " fill="#778A73" transform="translate(40,103)"/>
<path d="M0 0 C0.99 0 1.98 0 3 0 C4.60725635 3.21451269 4.05748185 6.43612536 4 10 C3.34 8.68 2.68 7.36 2 6 C1.34 6.66 0.68 7.32 0 8 C-0.38063221 5.6739143 -0.71269945 3.33944736 -1 1 C-0.67 0.67 -0.34 0.34 0 0 Z " fill="#D7D6C1" transform="translate(57,104)"/>
<path d="M0 0 C0.99 0.33 1.98 0.66 3 1 C3 1.66 3 2.32 3 3 C3.31802943 4.66965451 3.64984951 6.33678518 4 8 C3.34 8 2.68 8 2 8 C1.67 9.32 1.34 10.64 1 12 C0.8046875 10.01432292 0.609375 8.02864583 0.4140625 6.04296875 C0.07334609 3.70011858 0.07334609 3.70011858 -2 1 C-1.34 0.67 -0.68 0.34 0 0 Z " fill="#354930" transform="translate(74,91)"/>
<path d="M0 0 C0.66 0.33 1.32 0.66 2 1 C2 4.96 2 8.92 2 13 C1.01 12.34 0.02 11.68 -1 11 C-1.328125 8.90625 -1.328125 8.90625 -1.25 6.5 C-1.23453125 5.7059375 -1.2190625 4.911875 -1.203125 4.09375 C-1 2 -1 2 0 0 Z " fill="#CCC8B5" transform="translate(83,103)"/>
<path d="M0 0 C2 2 2 2 2.1953125 4.1640625 C2.17210937 4.97617188 2.14890625 5.78828125 2.125 6.625 C2.10695313 7.44226563 2.08890625 8.25953125 2.0703125 9.1015625 C2.03550781 10.04128906 2.03550781 10.04128906 2 11 C1.67 11 1.34 11 1 11 C1 9.35 1 7.7 1 6 C-0.32 5.67 -1.64 5.34 -3 5 C-3 3.68 -3 2.36 -3 1 C-2.01 0.67 -1.02 0.34 0 0 Z " fill="#18381F" transform="translate(45,101)"/>
<path d="M0 0 C2.64 0 5.28 0 8 0 C6.37660195 1.70884005 4.70680947 3.37446717 3 5 C2.34 5 1.68 5 1 5 C1.33 6.65 1.66 8.3 2 10 C0.5 8.6875 0.5 8.6875 -1 7 C-1 6.01 -1 5.02 -1 4 C-0.34 3.67 0.32 3.34 1 3 C0.67 2.01 0.34 1.02 0 0 Z " fill="#60795E" transform="translate(108,99)"/>
<path d="M0 0 C0.33 1.32 0.66 2.64 1 4 C-1.31 4 -3.62 4 -6 4 C-6.33 2.68 -6.66 1.36 -7 0 C-4.3333581 -1.33332095 -2.83319697 -0.67102033 0 0 Z " fill="#364E34" transform="translate(99,88)"/>
<path d="M0 0 C7.38461538 -0.49230769 7.38461538 -0.49230769 10.5 2 C10.995 2.66 11.49 3.32 12 4 C11.01 5.485 11.01 5.485 10 7 C9.67 5.68 9.34 4.36 9 3 C8.01 3 7.02 3 6 3 C5.01 3 4.02 3 3 3 C3 2.34 3 1.68 3 1 C2.01 0.67 1.02 0.34 0 0 Z " fill="#DADAC8" transform="translate(78,58)"/>
<path d="M0 0 C0.66 0.33 1.32 0.66 2 1 C2 2.98 2 4.96 2 7 C0.68 7 -0.64 7 -2 7 C-2 5.02 -2 3.04 -2 1 C-1.34 0.67 -0.68 0.34 0 0 Z " fill="#23381F" transform="translate(96,108)"/>
<path d="M0 0 C1.98 0 3.96 0 6 0 C6 1.98 6 3.96 6 6 C5.01 6 4.02 6 3 6 C2.01 4.02 1.02 2.04 0 0 Z " fill="#E8E4D3" transform="translate(75,92)"/>
<path d="M0 0 C1.65 0 3.3 0 5 0 C5 1.65 5 3.3 5 5 C3.02 5 1.04 5 -1 5 C-0.67 3.35 -0.34 1.7 0 0 Z " fill="#D1D4C1" transform="translate(119,88)"/>
<path d="M0 0 C2 0 2 0 3.5 1.375 C3.995 1.91125 4.49 2.4475 5 3 C5.66 3.66 6.32 4.32 7 5 C3.7 5 0.4 5 -3 5 C-3 4.01 -3 3.02 -3 2 C-2.01 2 -1.02 2 0 2 C0 1.34 0 0.68 0 0 Z " fill="#C9CDBA" transform="translate(70,82)"/>
<path d="M0 0 C0 1.98 0 3.96 0 6 C-0.66 5.34 -1.32 4.68 -2 4 C-2.99 4.495 -2.99 4.495 -4 5 C-4.33 4.01 -4.66 3.02 -5 2 C-2 0 -2 0 0 0 Z M-9 5 C-7.35 5 -5.7 5 -4 5 C-4 5.66 -4 6.32 -4 7 C-5.65 6.67 -7.3 6.34 -9 6 C-9 5.67 -9 5.34 -9 5 Z " fill="#F2EAD6" transform="translate(52,72)"/>
<path d="M0 0 C0.99 0.33 1.98 0.66 3 1 C3.33 3.97 3.66 6.94 4 10 C2.35 10 0.7 10 -1 10 C-0.67 6.7 -0.34 3.4 0 0 Z " fill="#F1EFDC" transform="translate(81,107)"/>
<path d="M0 0 C1.32 0.33 2.64 0.66 4 1 C3.625 3.4375 3.625 3.4375 3 6 C2.01 6.495 2.01 6.495 1 7 C1.99 7 2.98 7 4 7 C4 7.99 4 8.98 4 10 C2.68 9.34 1.36 8.68 0 8 C0 5.36 0 2.72 0 0 Z " fill="#0C2C0D" transform="translate(85,108)"/>
<path d="M0 0 C1.65 0.33 3.3 0.66 5 1 C4.01 1.33 3.02 1.66 2 2 C2 3.65 2 5.3 2 7 C1.01 7.33 0.02 7.66 -1 8 C-1.625 5.6875 -1.625 5.6875 -2 3 C-1.34 2.01 -0.68 1.02 0 0 Z " fill="#D2D1BF" transform="translate(65,92)"/>
<path d="M0 0 C2.475 0.495 2.475 0.495 5 1 C4.67 3.97 4.34 6.94 4 10 C2.68 9.34 1.36 8.68 0 8 C0 5.36 0 2.72 0 0 Z " fill="#4D5C43" transform="translate(59,93)"/>
<path d="M0 0 C0.33 0 0.66 0 1 0 C1 1.65 1 3.3 1 5 C0.071875 4.979375 -0.85625 4.95875 -1.8125 4.9375 C-5.02286011 4.84230396 -5.02286011 4.84230396 -8 6 C-7.67 5.01 -7.34 4.02 -7 3 C-3.535 2.505 -3.535 2.505 0 2 C0 1.34 0 0.68 0 0 Z " fill="#384F35" transform="translate(107,72)"/>
<path d="M0 0 C1.98 0 3.96 0 6 0 C6 0.66 6 1.32 6 2 C6.66 2.33 7.32 2.66 8 3 C7.01 3.99 6.02 4.98 5 6 C5 5.34 5 4.68 5 4 C3.35 3.67 1.7 3.34 0 3 C0 2.01 0 1.02 0 0 Z " fill="#0F3617" transform="translate(102,66)"/>
<path d="M0 0 C0.66 0.33 1.32 0.66 2 1 C2.484375 2.99609375 2.484375 2.99609375 2.75 5.4375 C2.84796875 6.24058594 2.9459375 7.04367188 3.046875 7.87109375 C3 10 3 10 1 12 C-0.47075246 7.58774263 -1.36884358 4.51718381 0 0 Z " fill="#113114" transform="translate(102,102)"/>
<path d="M0 0 C1.32 0 2.64 0 4 0 C4 1.65 4 3.3 4 5 C2.02 5 0.04 5 -2 5 C-1.125 1.125 -1.125 1.125 0 0 Z " fill="#113215" transform="translate(74,87)"/>
<path d="M0 0 C0.33 0.66 0.66 1.32 1 2 C1.99 2.33 2.98 2.66 4 3 C3.34 3 2.68 3 2 3 C2 3.99 2 4.98 2 6 C0.35 6 -1.3 6 -3 6 C-3 4.35 -3 2.7 -3 1 C-2.01 0.67 -1.02 0.34 0 0 Z " fill="#31482E" transform="translate(101,80)"/>
<path d="M0 0 C1.32 0.33 2.64 0.66 4 1 C4 2.65 4 4.3 4 6 C2.68 6 1.36 6 0 6 C0 4.02 0 2.04 0 0 Z " fill="#183218" transform="translate(62,60)"/>
<path d="M0 0 C0.99 0.66 1.98 1.32 3 2 C3 4 3 6 3 8 C1.68 7.67 0.36 7.34 -1 7 C-1.33 5.68 -1.66 4.36 -2 3 C-1.34 3 -0.68 3 0 3 C0 2.01 0 1.02 0 0 Z " fill="#2B3F25" transform="translate(37,101)"/>
<path d="M0 0 C0.66 0 1.32 0 2 0 C2 3.63 2 7.26 2 11 C-0.14208427 7.7868736 -0.59687808 5.78934603 -1 2 C-0.67 1.34 -0.34 0.68 0 0 Z " fill="#314B2E" transform="translate(92,72)"/>
<path d="M0 0 C0.99 0.33 1.98 0.66 3 1 C2.34 2.65 1.68 4.3 1 6 C1.66 6 2.32 6 3 6 C2.67 7.32 2.34 8.64 2 10 C1.34 10 0.68 10 0 10 C-0.95024979 6.30458414 -0.95024979 3.69541586 0 0 Z " fill="#DEDCC9" transform="translate(61,67)"/>
<path d="M0 0 C3.00617269 3.00617269 2.59585316 5.82381598 3 10 C2.01 10 1.02 10 0 10 C0 6.7 0 3.4 0 0 Z " fill="#213519" transform="translate(44,66)"/>
<path d="M0 0 C0.99 0.33 1.98 0.66 3 1 C2.74438677 3.3431213 2.40729228 5.67843403 2 8 C1.01 8.495 1.01 8.495 0 9 C-1.125 2.25 -1.125 2.25 0 0 Z " fill="#263E24" transform="translate(111,62)"/>
<path d="M0 0 C1.98 0 3.96 0 6 0 C6 1.98 6 3.96 6 6 C5.01 5.67 4.02 5.34 3 5 C3 4.01 3 3.02 3 2 C2.01 1.67 1.02 1.34 0 1 C0 0.67 0 0.34 0 0 Z " fill="#C3C9B5" transform="translate(63,34)"/>
<path d="M0 0 C0.33 0 0.66 0 1 0 C1.12375 0.969375 1.2475 1.93875 1.375 2.9375 C1.684375 4.4534375 1.684375 4.4534375 2 6 C2.66 6.33 3.32 6.66 4 7 C3.34 8.32 2.68 9.64 2 11 C1.67 10.34 1.34 9.68 1 9 C0.01 9 -0.98 9 -2 9 C-1.34 6.03 -0.68 3.06 0 0 Z " fill="#29442B" transform="translate(75,106)"/>
<path d="M0 0 C1.98 0.495 1.98 0.495 4 1 C3.34 3.64 2.68 6.28 2 9 C1.01 8.67 0.02 8.34 -1 8 C-0.835 7.236875 -0.67 6.47375 -0.5 5.6875 C0.09145396 2.96403764 0.09145396 2.96403764 0 0 Z " fill="#34492F" transform="translate(88,91)"/>
<path d="M0 0 C3.3 0.33 6.6 0.66 10 1 C10 1.66 10 2.32 10 3 C7.36 3 4.72 3 2 3 C2 2.34 2 1.68 2 1 C1.34 0.67 0.68 0.34 0 0 Z " fill="#143014" transform="translate(98,89)"/>
<path d="M0 0 C0.33 0 0.66 0 1 0 C1 2.97 1 5.94 1 9 C1.99 9.33 2.98 9.66 4 10 C1.36 10.66 -1.28 11.32 -4 12 C-3.34 11.01 -2.68 10.02 -2 9 C-1.67 9 -1.34 9 -1 9 C-0.67 6.03 -0.34 3.06 0 0 Z " fill="#B1BDA8" transform="translate(39,79)"/>
<path d="M0 0 C1.32 0 2.64 0 4 0 C4 1.32 4 2.64 4 4 C2.68 4.33 1.36 4.66 0 5 C-0.5625 3.0625 -0.5625 3.0625 -1 1 C-0.67 0.67 -0.34 0.34 0 0 Z " fill="#E9E2CD" transform="translate(121,84)"/>
<path d="M0 0 C0 2.31 0 4.62 0 7 C-1.32 7 -2.64 7 -4 7 C-3.625 4.0625 -3.625 4.0625 -3 1 C-1 0 -1 0 0 0 Z " fill="#EAE8D7" transform="translate(106,82)"/>
<path d="M0 0 C0.99 0 1.98 0 3 0 C3.625 1.8125 3.625 1.8125 4 4 C3.01 5.485 3.01 5.485 2 7 C1.34 7 0.68 7 0 7 C0 4.69 0 2.38 0 0 Z " fill="#112D10" transform="translate(81,77)"/>
<path d="M0 0 C2.50298434 2.93828597 3.46930939 5.17902761 4 9 C2.68 9 1.36 9 0 9 C0 6.03 0 3.06 0 0 Z " fill="#E3E3D1" transform="translate(71,45)"/>
<path d="M0 0 C-1.485 2.475 -1.485 2.475 -3 5 C-3.99 4.67 -4.98 4.34 -6 4 C-6.6875 1.9375 -6.6875 1.9375 -7 0 C-3.98968256 -0.93423645 -3.13349732 -1.04449911 0 0 Z " fill="#223F23" transform="translate(110,102)"/>
<path d="M0 0 C1.32 0 2.64 0 4 0 C4 1.65 4 3.3 4 5 C3.01 5.33 2.02 5.66 1 6 C0 5 0 5 -0.0625 2.4375 C-0.041875 1.633125 -0.02125 0.82875 0 0 Z " fill="#1D361B" transform="translate(94,94)"/>
<path d="M0 0 C3 3 3 3 4 6 C3.02149805 7.02104551 2.02019573 8.0206121 1 9 C0.67 9 0.34 9 0 9 C0 6.03 0 3.06 0 0 Z " fill="#43553D" transform="translate(62,76)"/>
<path d="M0 0 C0.33 0.66 0.66 1.32 1 2 C1.99 2 2.98 2 4 2 C4 2.66 4 3.32 4 4 C2.35 4.66 0.7 5.32 -1 6 C-1.33 4.35 -1.66 2.7 -2 1 C-1.34 0.67 -0.68 0.34 0 0 Z " fill="#F5E7D4" transform="translate(121,74)"/>
<path d="M0 0 C2.97 0.495 2.97 0.495 6 1 C5.67 2.98 5.34 4.96 5 7 C1.125 2.25 1.125 2.25 0 0 Z " fill="#F1EADA" transform="translate(75,58)"/>
<path d="M0 0 C0.99 0.33 1.98 0.66 3 1 C3 2.65 3 4.3 3 6 C0.69 6.33 -1.62 6.66 -4 7 C-2.68 6.67 -1.36 6.34 0 6 C-0.33 5.01 -0.66 4.02 -1 3 C-0.67 2.01 -0.34 1.02 0 0 Z " fill="#0C3014" transform="translate(106,52)"/>
<path d="M0 0 C1.32 0.33 2.64 0.66 4 1 C3.67 1.99 3.34 2.98 3 4 C0.9375 4.6875 0.9375 4.6875 -1 5 C-1.33 4.34 -1.66 3.68 -2 3 C-1.34 2.01 -0.68 1.02 0 0 Z " fill="#69744F" transform="translate(40,48)"/>
<path d="M0 0 C0.99 1.485 0.99 1.485 2 3 C2.66 2.67 3.32 2.34 4 2 C4 4.31 4 6.62 4 9 C3.67 8.34 3.34 7.68 3 7 C2.01 6.67 1.02 6.34 0 6 C0 4.02 0 2.04 0 0 Z " fill="#0C3011" transform="translate(76,106)"/>
<path d="M0 0 C-0.99 0.66 -1.98 1.32 -3 2 C-3.72965366 4.56282742 -3.72965366 4.56282742 -4 7 C-7 3.25 -7 3.25 -7 1 C-4.53721199 -0.231394 -2.7204945 -0.07159196 0 0 Z " fill="#EFE9D9" transform="translate(56,92)"/>
<path d="M0 0 C1.32 0.66 2.64 1.32 4 2 C4 2.99 4 3.98 4 5 C2.35 4.67 0.7 4.34 -1 4 C-0.67 2.68 -0.34 1.36 0 0 Z " fill="#2F4228" transform="translate(23,65)"/>
<path d="M0 0 C1.32 0 2.64 0 4 0 C3.625 1.9375 3.625 1.9375 3 4 C2.01 4.495 2.01 4.495 1 5 C0.34 4.67 -0.32 4.34 -1 4 C-0.67 2.68 -0.34 1.36 0 0 Z " fill="#243920" transform="translate(87,55)"/>
<path d="M0 0 C2.19117105 3.28675658 2.09652576 4.23549534 2 8 C2.33 8.66 2.66 9.32 3 10 C1.68 10 0.36 10 -1 10 C-0.67 6.7 -0.34 3.4 0 0 Z " fill="#BFC5B1" transform="translate(84,45)"/>
<path d="M0 0 C2.15377564 2.62198774 3.40072174 4.64404172 4 8 C2.68 8 1.36 8 0 8 C0 5.36 0 2.72 0 0 Z " fill="#45563E" transform="translate(74,35)"/>
<path d="M0 0 C1.32 0.33 2.64 0.66 4 1 C3.38722388 3.96175123 2.74627478 5.38058783 1 8 C0.67 5.36 0.34 2.72 0 0 Z " fill="#F6EADC" transform="translate(49,78)"/>
<path d="M0 0 C0.66 0 1.32 0 2 0 C2.625 2.375 2.625 2.375 3 5 C2.34 5.66 1.68 6.32 1 7 C0.34 7 -0.32 7 -1 7 C-0.67 4.69 -0.34 2.38 0 0 Z " fill="#E5DDC9" transform="translate(119,69)"/>
<path d="M0 0 C1.65 0 3.3 0 5 0 C5 0.99 5 1.98 5 3 C3.02 3 1.04 3 -1 3 C-0.67 2.01 -0.34 1.02 0 0 Z " fill="#E3E7D3" transform="translate(102,71)"/>
<path d="M0 0 C0.33 0 0.66 0 1 0 C1 2.31 1 4.62 1 7 C-0.32 7.33 -1.64 7.66 -3 8 C-3.33 6.35 -3.66 4.7 -4 3 C-3.01 3.33 -2.02 3.66 -1 4 C-0.67 2.68 -0.34 1.36 0 0 Z " fill="#0E2A0E" transform="translate(55,64)"/>
<path d="M0 0 C2.97 0 5.94 0 9 0 C5.93882432 2.62386487 5.26826873 3 1 3 C0.67 2.01 0.34 1.02 0 0 Z " fill="#DDDFCC" transform="translate(60,58)"/>
</svg>
